<svg xmlns="http://www.w3.org/2000/svg" width="1152" height="6627" viewBox="0 0 1152 6627" xml:space="preserve">
  <path d="M-27 1953.3c248-116.7 1051.6 108.9 1199.8 26.7 148.2-82.2 286.8 850 0 892.2-286.8 42.2-275.2-51.1-555.6 0-280.4 51.1-268.1 47.8-603.8 0-335.7-47.8-288.4-802.3-40.4-918.9z" fill="#ec9718"/>
  <path fill="#00aed6" d="M12.4 5548.8c483.3 70.5 500.6-103.5 1159.2 0s286.8 1086.3 0 1110.9c-286.8 24.6-250.4-46.3-555.6 0s-363.1 80.3-603.7 0c-240.4-80.3-483.2-1181.3.1-1110.9z"/>
  <path d="M13.3 3410.7c247.9-141.3 1097.5 99.6 1245.7 0 148.1-99.6 200.3 707.9-86.4 759-286.8 51.1-275.2-61.9-555.5 0s-268 57.9-603.7 0c-335.7-57.8-248-617.7-.1-759z" fill="#b770ff"/>
  <path d="M-9.5 4089.5c345.5 57.9 258.4-133.7 973.5 0s414.1 666.2 529.1 757.7c114.9 91.5-489.1 453.3-757.7 453.3s-335.1 81.9-744.8 9.9-345.6-1278.7-.1-1220.9z" fill="#b1b500"/>
  <path d="M-90.5 4903.7c439.5-177.2 835.5 130.8 1250.4-9 414.9-139.8 447.8 709.4 178.2 716.5s-340.2 145.5-697.6 34.4C283 5534.5 60 5670.1-19.8 5611.2c-79.9-59-510.2-530.3-70.7-707.5z" fill="#f8086d"/>
  <path d="M13.9 901.7c227.8-72.9 689.9 58.8 1158.4 0C1640.8 842.9 1639 2033 1339 2123s-311.8-57.6-580.3-57.6c-268.6 0-173.7 27.6-639.7 27.6S-213.9 974.5 13.9 901.7z" fill="#1ec1a4"/>
  <path fill="#00aed6" d="M10.3-28c483.2 93.7 500.5-137.6 1158.9 0 658.4 137.6 231.2 879.7 0 980.4s-170.2-84.3-555.4 0-268 37-603.5 0c-335.6-37.1-483.2-1074.1 0-980.4z"/>
  <path d="M13.1 2608.8c279.9-67.7 453.4 152.3 997.6 0s448.7 823.2 161.9 882.7c-286.8 59.5-269.4-58-555.7 0-286.3 58-552.1 42.8-764-38.4-211.8-81.3-119.6-776.6 160.2-844.3z" fill="#ec09ac"/>
</svg>
