<svg width="101" height="25" viewBox="0 0 101 25" fill="none" xmlns="http://www.w3.org/2000/svg">
    <g clip-path="url(#clip0)">
        <path d="M53.3157 6.7132C52.5398 6.7132 51.8857 6.44174 51.3684 5.90736C50.8554 5.38795 50.569 4.67189 50.5818 3.94086C50.5818 3.16067 50.8469 2.50018 51.3684 1.97649C51.8835 1.44212 52.5376 1.17065 53.3135 1.17065C54.0809 1.17065 54.735 1.44212 55.2608 1.97649C55.7824 2.51728 56.0474 3.17777 56.0474 3.94086C56.0389 4.72319 55.7738 5.38367 55.2608 5.90523C54.7457 6.44388 54.0916 6.7132 53.3157 6.7132ZM30.2285 6.7132C29.4696 6.7132 28.8113 6.44601 28.2726 5.91805C27.7383 5.39222 27.4668 4.72746 27.4668 3.943C27.4668 3.15853 27.7383 2.49377 28.2726 1.96794C28.8006 1.43998 29.459 1.17279 30.2285 1.17279C30.6047 1.17279 30.9702 1.2476 31.3207 1.39937C31.6649 1.54686 31.9449 1.74778 32.1522 1.99359L32.2035 2.05558L31.6242 2.62416L31.5644 2.55362C31.2374 2.16459 30.7992 1.97436 30.2199 1.97436C29.7026 1.97436 29.2516 2.15818 28.8797 2.52156C28.5056 2.88707 28.3154 3.36587 28.3154 3.94513C28.3154 4.5244 28.5056 5.0032 28.8797 5.36871C29.2516 5.73209 29.7026 5.91591 30.2199 5.91591C30.7714 5.91591 31.2352 5.73209 31.5965 5.36871C31.8102 5.15496 31.9427 4.85571 31.9898 4.47737H30.1323V3.67795H32.7871L32.7977 3.75062C32.817 3.88528 32.8362 4.02422 32.8362 4.15247C32.8362 4.88991 32.6139 5.48627 32.1736 5.9266C31.6734 6.44815 31.0193 6.7132 30.2285 6.7132ZM60.9252 6.59991H60.1065L57.5992 2.58782L57.6206 3.3103V6.59778H56.802V1.28608H57.736L57.7617 1.32669L60.1194 5.1058L60.098 4.38546V1.28608H60.9252V6.59991ZM47.1639 6.59991H46.3346V2.08551H44.896V1.28608H48.6003V2.08551H47.1618V6.59991H47.1639ZM44.2206 6.59991H43.3934V1.28608H44.2206V6.59991ZM39.5715 6.59991H38.7443V2.08551H37.3057V1.28608H41.01V2.08551H39.5715V6.59991ZM36.7821 6.59137H33.61V1.28608H36.7821V2.08551H34.4393V3.54328H36.5533V4.33416H34.4393V5.79194H36.7821V6.59137ZM51.9755 5.35803C52.3452 5.72781 52.7941 5.91378 53.3157 5.91378C53.8522 5.91378 54.2904 5.73209 54.6559 5.35803C55.0193 4.99465 55.2031 4.51799 55.2031 3.943C55.2031 3.36801 55.0193 2.88921 54.658 2.52797C54.2882 2.15818 53.8372 1.97222 53.3178 1.97222C52.7813 1.97222 52.3431 2.15391 51.9797 2.52797C51.6164 2.89135 51.4325 3.36801 51.4325 3.943C51.4325 4.51799 51.6142 4.99679 51.9755 5.35803Z"
              fill="#7D7D7D"/>
        <path fill-rule="evenodd" clip-rule="evenodd"
              d="M50.5048 14.0191C48.4848 14.0191 46.8475 15.5517 46.8475 17.6657C46.8475 19.7605 48.4955 21.3123 50.5048 21.3123C52.5247 21.3123 54.1621 19.769 54.1621 17.6657C54.1621 15.5517 52.5247 14.0191 50.5048 14.0191ZM50.5048 19.8673C49.3997 19.8673 48.4485 18.9525 48.4485 17.6572C48.4485 16.3426 49.4018 15.447 50.5048 15.447C51.6099 15.447 52.5611 16.3426 52.5611 17.6572C52.5632 18.961 51.6099 19.8673 50.5048 19.8673ZM42.5254 14.0191C40.5055 14.0191 38.8682 15.5517 38.8682 17.6657C38.8682 19.7605 40.5162 21.3123 42.5254 21.3123C44.5454 21.3123 46.1827 19.769 46.1827 17.6657C46.1827 15.5517 44.5433 14.0191 42.5254 14.0191ZM42.5254 19.8673C41.4203 19.8673 40.4692 18.9525 40.4692 17.6572C40.4692 16.3426 41.4225 15.447 42.5254 15.447C43.6305 15.447 44.5817 16.3426 44.5817 17.6572C44.5817 18.961 43.6305 19.8673 42.5254 19.8673ZM33.0306 15.1328V16.6761H36.7349C36.6216 17.5417 36.3352 18.1809 35.897 18.619C35.3541 19.162 34.5162 19.7519 33.0392 19.7519C30.7627 19.7519 28.9821 17.9137 28.9821 15.6372C28.9821 13.3608 30.7627 11.5225 33.0392 11.5225C34.2682 11.5225 35.1638 12.0077 35.8286 12.6276L36.923 11.5332C35.9996 10.6483 34.7705 9.9707 33.0477 9.9707C29.9248 9.9707 27.3042 12.5143 27.3042 15.6287C27.3042 18.7516 29.9227 21.2867 33.0477 21.2867C34.7342 21.2867 35.9996 20.7352 37 19.6963C38.0196 18.6768 38.3423 17.2382 38.3423 16.0776C38.3423 15.7163 38.3145 15.3914 38.2568 15.1157H33.0285C33.0306 15.1135 33.0306 15.1328 33.0306 15.1328ZM71.8671 16.3341C71.5614 15.5154 70.638 14.0106 68.7442 14.0106C66.8674 14.0106 65.3071 15.4876 65.3071 17.6572C65.3071 19.7049 66.8503 21.3037 68.9259 21.3037C70.5931 21.3037 71.5636 20.2842 71.9633 19.6857L70.7257 18.8563C70.3153 19.4655 69.7445 19.8652 68.9344 19.8652C68.1158 19.8652 67.5429 19.4933 67.1624 18.7601L72.0381 16.7402C72.0381 16.7423 71.8671 16.3341 71.8671 16.3341ZM66.8952 17.5524C66.8568 16.1438 67.9896 15.4278 68.7998 15.4278C69.4389 15.4278 69.9711 15.742 70.1528 16.1994L66.8952 17.5524ZM62.9344 21.0857H64.5354V10.3726H62.9344V21.0857ZM60.3053 14.8292H60.2476C59.8863 14.3996 59.2002 14.0106 58.3238 14.0106C56.5048 14.0106 54.829 15.6116 54.829 17.6679C54.829 19.7156 56.4962 21.2973 58.3238 21.2973C59.1895 21.2973 59.8863 20.9062 60.2476 20.468H60.3053V20.9917C60.3053 22.3832 59.5614 23.1335 58.3623 23.1335C57.3812 23.1335 56.772 22.4281 56.524 21.8381L55.1325 22.4195C55.5322 23.3814 56.5988 24.572 58.3601 24.572C60.2369 24.572 61.8272 23.4669 61.8272 20.7715V14.2286H60.3138V14.8292C60.316 14.8292 60.3053 14.8292 60.3053 14.8292ZM58.467 19.8673C57.3619 19.8673 56.4385 18.9439 56.4385 17.6679C56.4385 16.3811 57.3619 15.4491 58.467 15.4491C59.5614 15.4491 60.41 16.3918 60.41 17.6679C60.4207 18.9439 59.5636 19.8673 58.467 19.8673ZM79.3634 10.3726H75.5351V21.0857H77.1361V17.0287H79.3655C81.1375 17.0287 82.8796 15.7441 82.8796 13.7049C82.8796 11.6657 81.1439 10.3726 79.3634 10.3726ZM79.4104 15.5325H77.1339V11.856H79.4104C80.6095 11.856 81.2871 12.8456 81.2871 13.6942C81.2871 14.5343 80.601 15.5325 79.4104 15.5325ZM89.2964 13.9999C88.1336 13.9999 86.9344 14.515 86.4385 15.6372L87.8578 16.2272C88.1635 15.6372 88.7235 15.4363 89.3156 15.4363C90.145 15.4363 90.9829 15.9322 91.0021 16.8171V16.9304C90.7157 16.768 90.0873 16.52 89.3349 16.52C87.8023 16.52 86.2483 17.3579 86.2483 18.929C86.2483 20.3675 87.5052 21.2909 88.9052 21.2909C89.9804 21.2909 90.5725 20.8057 90.9423 20.2435H91V21.0729H92.5433V16.9689C92.5433 15.058 91.124 13.9999 89.2964 13.9999ZM89.0955 19.8673C88.5718 19.8673 87.8386 19.6108 87.8386 18.9525C87.8386 18.1231 88.7535 17.8089 89.5336 17.8089C90.239 17.8089 90.5725 17.9607 90.9914 18.1702C90.876 19.132 90.0638 19.8588 89.0955 19.8673ZM98.1735 14.2286L96.3352 18.8755H96.2775L94.373 14.2286H92.6501L95.508 20.7245L93.8792 24.3347H95.5465L99.9433 14.2286H98.1735ZM83.7624 21.0857H85.3634V10.3726H83.7624V21.0857Z"
              fill="#7D7D7D"/>
        <path fill-rule="evenodd" clip-rule="evenodd"
              d="M1.04937 1.82908C0.801416 2.09626 0.658203 2.50453 0.658203 3.0389V21.9922C0.658203 22.5265 0.801416 22.9348 1.05792 23.1913L1.12418 23.249L11.7433 12.6299V12.3926L1.11563 1.77136L1.04937 1.82908Z"
              fill="url(#paint0_linear)"/>
        <path fill-rule="evenodd" clip-rule="evenodd"
              d="M15.2767 16.1803L11.7349 12.6384V12.3905L15.2767 8.84863L15.3537 8.89566L19.5432 11.2768C20.7424 11.9523 20.7424 13.0681 19.5432 13.7521L15.3537 16.1332L15.2767 16.1803Z"
              fill="url(#paint1_linear)"/>
        <path fill-rule="evenodd" clip-rule="evenodd"
              d="M15.3536 16.1332L11.7347 12.5144L1.04932 23.1998C1.44048 23.6187 2.0967 23.6658 2.82987 23.2575L15.3536 16.1332Z"
              fill="url(#paint2_linear)"/>
        <path fill-rule="evenodd" clip-rule="evenodd"
              d="M15.3536 8.89557L2.82987 1.78196C2.0967 1.36301 1.43834 1.42072 1.04932 1.83967L11.7347 12.5144L15.3536 8.89557Z"
              fill="url(#paint3_linear)"/>
        <path opacity="0.2" fill-rule="evenodd" clip-rule="evenodd"
              d="M15.2764 16.056L2.83817 23.1226C2.14348 23.5223 1.5236 23.4946 1.12388 23.1312L1.05762 23.1974L1.12388 23.2552C1.5236 23.6164 2.14348 23.6463 2.83817 23.2466L15.3619 16.133L15.2764 16.056Z"
              fill="black"/>
        <path opacity="0.12" fill-rule="evenodd" clip-rule="evenodd"
              d="M19.5428 13.628L15.2656 16.0562L15.3426 16.1332L19.5321 13.752C20.1327 13.41 20.4277 12.9611 20.4277 12.5144C20.3914 12.9248 20.0857 13.3138 19.5428 13.628Z"
              fill="black"/>
        <path opacity="0.25" fill-rule="evenodd" clip-rule="evenodd"
              d="M2.82992 1.90601L19.5431 11.4008C20.0861 11.7065 20.3917 12.1062 20.4388 12.5144C20.4388 12.0677 20.1438 11.6188 19.5431 11.2768L2.82992 1.78203C1.63077 1.09589 0.658203 1.66874 0.658203 3.03888V3.16286C0.658203 1.79058 1.63077 1.22842 2.82992 1.90601Z"
              fill="white"/>
    </g>
    <defs>
        <linearGradient id="paint0_linear" x1="10.7908" y1="2.83442" x2="-6.21924" y2="7.36679"
                        gradientUnits="userSpaceOnUse">
            <stop stop-color="#00A0FF"/>
            <stop offset="0.00657" stop-color="#00A1FF"/>
            <stop offset="0.2601" stop-color="#00BEFF"/>
            <stop offset="0.5122" stop-color="#00D2FF"/>
            <stop offset="0.7604" stop-color="#00DFFF"/>
            <stop offset="1" stop-color="#00E3FF"/>
        </linearGradient>
        <linearGradient id="paint1_linear" x1="21.107" y1="12.5145" x2="0.366798" y2="12.5145"
                        gradientUnits="userSpaceOnUse">
            <stop stop-color="#FFE000"/>
            <stop offset="0.4087" stop-color="#FFBD00"/>
            <stop offset="0.7754" stop-color="#FFA500"/>
            <stop offset="1" stop-color="#FF9C00"/>
        </linearGradient>
        <linearGradient id="paint2_linear" x1="13.3858" y1="14.4835" x2="-0.269718" y2="37.467"
                        gradientUnits="userSpaceOnUse">
            <stop stop-color="#FF3A44"/>
            <stop offset="1" stop-color="#C31162"/>
        </linearGradient>
        <linearGradient id="paint3_linear" x1="-1.64139" y1="-4.47516" x2="4.45088" y2="5.7896"
                        gradientUnits="userSpaceOnUse">
            <stop stop-color="#32A071"/>
            <stop offset="0.0685" stop-color="#2DA771"/>
            <stop offset="0.4762" stop-color="#15CF74"/>
            <stop offset="0.8009" stop-color="#06E775"/>
            <stop offset="1" stop-color="#00F076"/>
        </linearGradient>
        <clipPath id="clip0">
            <rect x="0.334473" y="0.8573" width="99.7714" height="23.9999" fill="white"/>
        </clipPath>
    </defs>
</svg>
