<svg width="12" height="24" viewBox="0 0 12 24" fill="none" xmlns="http://www.w3.org/2000/svg">
    <path d="M7.78909 12.9575H7.69411V13.0524V23.905H3.64201V13.0524V12.9575H3.54702H0.0949812V8.88096H3.54702H3.64201V8.78598V5.63958C3.64201 3.83255 4.17297 2.44861 5.08064 1.51683C5.98818 0.585177 7.28256 0.0949812 8.83033 0.0949812C10.2334 0.0949812 11.4508 0.196619 11.905 0.25169V3.88917L9.82479 3.89012C9.82477 3.89012 9.82476 3.89012 9.82475 3.89012C8.95836 3.89013 8.41506 4.10402 8.09361 4.50058C7.77595 4.89248 7.69411 5.44088 7.69411 6.06211V8.78598V8.88096H7.78909H11.7493L11.2431 12.9575H7.78909Z"
          fill="#3C5A99" stroke="#E0E0E0" stroke-width="0.189962"/>
</svg>
