<svg width="22" height="22" viewBox="0 0 22 22" fill="none" xmlns="http://www.w3.org/2000/svg">
<path d="M9.07992 0.440002C4.56867 0.440002 0.919922 4.08875 0.919922 8.6C0.919922 13.1113 4.56867 16.76 9.07992 16.76C10.6905 16.76 12.1812 16.2875 13.4449 15.485L19.3399 21.38L21.3799 19.34L15.5599 13.535C16.6062 12.1625 17.2399 10.4619 17.2399 8.6C17.2399 4.08875 13.5912 0.440002 9.07992 0.440002ZM9.07992 2.36C12.5355 2.36 15.3199 5.14438 15.3199 8.6C15.3199 12.0556 12.5355 14.84 9.07992 14.84C5.6243 14.84 2.83992 12.0556 2.83992 8.6C2.83992 5.14438 5.6243 2.36 9.07992 2.36Z" fill="#00AED6"/>
</svg>
