<svg width="24" height="24" viewBox="0 0 24 24" fill="none" xmlns="http://www.w3.org/2000/svg">
<path fill-rule="evenodd" clip-rule="evenodd" d="M0 17L12 11L24 17L12 23L0 17Z" fill="#222222"/>
<path d="M12 2.7L20.6 7L12 11.3L3.4 7L12 2.7ZM12 1L0 7L12 13L24 7L12 1Z" fill="#222222"/>
<path d="M12 2.5L3.5 7L12 11.5L20.5 7L12 2.5Z" fill="white"/>
<path d="M12 7.5L3.5 12L12 16.5L20.5 12L12 7.5Z" fill="white"/>
<path d="M12 2.7L20.6 7L12 11.3L3.4 7L12 2.7ZM12 1L0 7L12 13L24 7L12 1Z" fill="#222222"/>
<path d="M17 10.2L20.6 12L12 16.3L3.4 12L7 10.2L5.4 9.30005L0 12L12 18L24 12L18.6 9.30005L17 10.2Z" fill="#222222"/>
</svg>
