<svg width="16" height="16" viewBox="0 0 16 16" fill="none" xmlns="http://www.w3.org/2000/svg">
    <g clip-path="url(#clip0)">
        <path d="M11.3333 10.1333L13.7333 11.3333L8 14.2L2.26667 11.3333L4.66667 10.1333L3.6 9.53333L0 11.3333L8 15.3333L16 11.3333L12.4 9.53333L11.3333 10.1333Z"
              fill="#7D7D7D"/>
        <path fill-rule="evenodd" clip-rule="evenodd" d="M0 8L8 4L16 8L8 12L0 8Z" fill="#7D7D7D"/>
        <path d="M12 2.5L3.5 7L12 11.5L20.5 7L12 2.5Z" fill="white"/>
        <path d="M8 1.79996L13.7333 4.66663L8 7.53329L2.26667 4.66663L8 1.79996ZM8 0.666626L0 4.66663L8 8.66663L16 4.66663L8 0.666626Z"
              fill="#7D7D7D"/>
    </g>
    <defs>
        <clipPath id="clip0">
            <path d="M0 0H16V16H0V0Z" fill="white"/>
        </clipPath>
    </defs>
</svg>
