<svg width="27" height="13" viewBox="0 0 27 13" fill="none" xmlns="http://www.w3.org/2000/svg">
<path d="M3.2 12H5.552L7.312 5.28C7.504 4.544 7.616 3.792 7.616 3.792H7.664C7.664 3.792 7.776 4.544 7.952 5.28L9.728 12H12.048L14.992 0.639999H12.864L10.976 8.496C10.832 9.136 10.8 9.696 10.8 9.696H10.768C10.768 9.696 10.704 9.152 10.528 8.496L8.512 0.639999H6.784L4.752 8.496C4.576 9.152 4.512 9.696 4.512 9.696H4.48C4.48 9.696 4.432 9.136 4.288 8.496L2.528 0.639999H0.368L3.2 12ZM16.5006 6.272C16.5006 9.616 18.8046 12.192 22.3726 12.192C24.4046 12.192 25.8606 11.344 26.8366 10.352L25.7486 8.864C24.8846 9.712 23.6686 10.304 22.4526 10.304C19.9886 10.304 18.6286 8.368 18.6286 6.24C18.6286 4.144 19.9406 2.336 22.4366 2.336C23.5406 2.336 24.7406 2.848 25.5406 3.536L26.5326 2C25.4286 0.927999 23.8286 0.447999 22.3406 0.447999C18.9166 0.447999 16.5006 2.976 16.5006 6.272Z" fill="#222222"/>
</svg>
