<svg width="23" height="24" viewBox="0 0 23 24" fill="none" xmlns="http://www.w3.org/2000/svg">
    <path d="M6.5313 0.40625C0.605517 3.89844 -1.38667 11.5078 2.00005 17.4375C5.39067 23.3672 13.0352 25.4883 19.0625 22L18.3438 20.7812C12.9727 23.8906 6.23052 22.0195 3.2188 16.75C0.207079 11.4766 1.9727 4.70312 7.25005 1.59375L6.5313 0.40625ZM13 1.3125C7.65239 1.3125 3.31255 5.65234 3.31255 11C3.31255 16.3477 7.65239 20.6875 13 20.6875C18.3477 20.6875 22.6875 16.3477 22.6875 11C22.6875 5.65234 18.3477 1.3125 13 1.3125ZM13 2.6875C14.0704 2.6875 15.0938 2.91406 16.0313 3.28125L13.4688 4.75C13.0977 4.36719 12.7149 4.01953 12.3438 3.71875C11.9336 3.38281 11.5274 3.125 11.125 2.90625C11.7266 2.76953 12.3555 2.6875 13 2.6875ZM9.2188 3.71875C9.37505 3.71875 9.58208 3.73828 9.81255 3.8125C10.2735 3.96484 10.8086 4.29688 11.4375 4.8125C11.6719 5.00391 11.9141 5.26172 12.1563 5.5L8.6563 7.5C8.57427 7.17578 8.48442 6.85547 8.43755 6.5625C8.30474 5.76172 8.27739 5.09766 8.37505 4.625C8.4727 4.15234 8.65239 3.92188 8.8438 3.8125C8.93755 3.75781 9.06255 3.71875 9.2188 3.71875ZM17.5313 4.03125C18.4336 4.61719 19.2305 5.36719 19.8438 6.25L16.1875 8.375C15.6172 7.4375 15.0235 6.57031 14.4063 5.8125L17.5313 4.03125ZM6.9063 5.375C6.89849 5.82031 6.94927 6.27344 7.0313 6.78125C7.10552 7.23828 7.19927 7.71875 7.3438 8.21875L4.81255 9.6875C5.07817 8.03516 5.82036 6.55078 6.9063 5.375ZM13.125 6.53125C13.7461 7.26953 14.3516 8.11328 14.9375 9.0625L10.375 11.7188C9.83989 10.7227 9.39067 9.76172 9.06255 8.84375L13.125 6.53125ZM20.5313 7.46875C20.9844 8.4375 21.2657 9.52734 21.3125 10.6562L18.1875 12.4062C17.8438 11.4844 17.3946 10.5234 16.875 9.5625L20.5313 7.46875ZM7.81255 9.59375C8.1563 10.5156 8.60552 11.4766 9.12505 12.4375L5.4688 14.5312C5.01567 13.5625 4.73442 12.4727 4.68755 11.3438L7.81255 9.59375ZM15.625 10.2812C16.1602 11.2773 16.6094 12.2383 16.9375 13.1562L12.875 15.4688C12.254 14.7305 11.6485 13.8867 11.0625 12.9375L15.625 10.2812ZM21.1875 12.3125C20.9219 13.9648 20.1797 15.4492 19.0938 16.625C19.1016 16.1797 19.0508 15.7266 18.9688 15.2188C18.8946 14.7617 18.8008 14.2812 18.6563 13.7812L21.1875 12.3125ZM9.81255 13.625C10.3829 14.5625 10.9766 15.4297 11.5938 16.1875L8.4688 17.9688C7.56645 17.3828 6.76958 16.6328 6.1563 15.75L9.81255 13.625ZM17.3438 14.5C17.4258 14.8242 17.5157 15.1445 17.5625 15.4375C17.6954 16.2383 17.7227 16.9023 17.625 17.375C17.5274 17.8477 17.3477 18.0781 17.1563 18.1875C16.9649 18.2969 16.6485 18.3398 16.1875 18.1875C15.7266 18.0352 15.1915 17.7031 14.5625 17.1875C14.3282 16.9961 14.086 16.7383 13.8438 16.5L17.3438 14.5ZM12.5313 17.25C12.9024 17.6328 13.2852 17.9805 13.6563 18.2812C14.0665 18.6172 14.4727 18.875 14.875 19.0938C14.2735 19.2305 13.6446 19.3125 13 19.3125C11.9297 19.3125 10.9063 19.0859 9.9688 18.7188L12.5313 17.25Z"
          fill="#7D7D7D"/>
</svg>
