<svg width="36" height="36" viewBox="0 0 36 36" fill="none" xmlns="http://www.w3.org/2000/svg">
    <path d="M18.0017 0C13.1131 0 12.4996 0.0213756 10.5796 0.108751C8.66334 0.196502 7.35533 0.49988 6.21081 0.94501C5.02693 1.40476 4.02267 2.01977 3.02216 3.02066C2.0209 4.02117 1.40589 5.02543 0.944634 6.20894C0.49838 7.35382 0.194627 8.66221 0.108376 10.5777C0.0225001 12.4978 0 13.1116 0 18.0002C0 22.8887 0.0217506 23.5004 0.108751 25.4204C0.196877 27.3367 0.500255 28.6447 0.94501 29.7892C1.40514 30.9731 2.02015 31.9773 3.02103 32.9778C4.02117 33.9791 5.02543 34.5956 6.20856 35.0554C7.35383 35.5005 8.66221 35.8039 10.5781 35.8916C12.4981 35.979 13.1113 36.0004 17.9994 36.0004C22.8884 36.0004 23.5 35.979 25.42 35.8916C27.3363 35.8039 28.6458 35.5005 29.7911 35.0554C30.9746 34.5956 31.9773 33.9791 32.9775 32.9778C33.9787 31.9773 34.5937 30.9731 35.055 29.7896C35.4975 28.6447 35.8012 27.3363 35.8912 25.4208C35.9775 23.5007 36 22.8887 36 18.0002C36 13.1116 35.9775 12.4981 35.8912 10.5781C35.8012 8.66184 35.4975 7.35382 35.055 6.20931C34.5937 5.02543 33.9787 4.02117 32.9775 3.02066C31.9762 2.0194 30.9749 1.40439 29.7899 0.94501C28.6424 0.49988 27.3337 0.196502 25.4174 0.108751C23.4974 0.0213756 22.8861 0 17.9961 0H18.0017ZM16.3869 3.24378C16.8662 3.24303 17.4009 3.24378 18.0017 3.24378C22.8077 3.24378 23.3774 3.26103 25.2753 3.34728C27.0303 3.42754 27.9828 3.72079 28.6173 3.96717C29.4573 4.29342 30.0562 4.68342 30.6858 5.31343C31.3158 5.94344 31.7058 6.54344 32.0328 7.38345C32.2792 8.01721 32.5728 8.96972 32.6527 10.7247C32.739 12.6223 32.7577 13.1923 32.7577 17.9961C32.7577 22.7999 32.739 23.3699 32.6527 25.2674C32.5725 27.0224 32.2792 27.9749 32.0328 28.6087C31.7066 29.4487 31.3158 30.0468 30.6858 30.6764C30.0558 31.3064 29.4577 31.6964 28.6173 32.0227C27.9835 32.2702 27.0303 32.5627 25.2753 32.643C23.3777 32.7292 22.8077 32.748 18.0017 32.748C13.1953 32.748 12.6256 32.7292 10.7281 32.643C8.97309 32.562 8.02058 32.2687 7.3857 32.0223C6.54569 31.6961 5.94569 31.3061 5.31568 30.6761C4.68567 30.0461 4.29567 29.4476 3.96867 28.6072C3.72229 27.9734 3.42866 27.0209 3.34878 25.2659C3.26253 23.3684 3.24528 22.7984 3.24528 17.9916C3.24528 13.1848 3.26253 12.6178 3.34878 10.7202C3.42904 8.96522 3.72229 8.01271 3.96867 7.3782C4.29492 6.53819 4.68567 5.93818 5.31568 5.30818C5.94569 4.67817 6.54569 4.28817 7.3857 3.96117C8.02021 3.71366 8.97309 3.42116 10.7281 3.34053C12.3886 3.26553 13.0321 3.24303 16.3869 3.23928V3.24378ZM27.61 6.23256C26.4175 6.23256 25.45 7.19895 25.45 8.39184C25.45 9.58435 26.4175 10.5519 27.61 10.5519C28.8025 10.5519 29.7701 9.58435 29.7701 8.39184C29.7701 7.19932 28.8025 6.23181 27.61 6.23181V6.23256ZM18.0017 8.75634C12.8968 8.75634 8.75784 12.8953 8.75784 18.0002C8.75784 23.1051 12.8968 27.2422 18.0017 27.2422C23.1066 27.2422 27.244 23.1051 27.244 18.0002C27.244 12.8953 23.1062 8.75634 18.0013 8.75634H18.0017ZM18.0017 12.0001C21.3152 12.0001 24.0017 14.6863 24.0017 18.0002C24.0017 21.3137 21.3152 24.0002 18.0017 24.0002C14.6878 24.0002 12.0016 21.3137 12.0016 18.0002C12.0016 14.6863 14.6878 12.0001 18.0017 12.0001Z"
          fill="white"/>
</svg>
