<svg width="27" height="27" viewBox="0 0 27 27" fill="none" xmlns="http://www.w3.org/2000/svg">
    <path d="M13.5013 0C9.83485 0 9.37472 0.0160315 7.93471 0.0815628C6.49751 0.147375 5.51649 0.374906 4.65811 0.70875C3.7702 1.05356 3.017 1.51481 2.26662 2.26547C1.51567 3.01584 1.05442 3.76903 0.708476 4.65666C0.373785 5.51531 0.14597 6.49659 0.081282 7.93322C0.0168751 9.37322 0 9.83362 0 13.5C0 17.1664 0.0163129 17.6251 0.0815636 19.0651C0.147658 20.5023 0.375192 21.4833 0.708757 22.3417C1.05385 23.2296 1.51511 23.9827 2.26577 24.7331C3.01588 25.4841 3.76907 25.9464 4.65642 26.2913C5.51537 26.6251 6.49666 26.8526 7.93358 26.9184C9.3736 26.984 9.83345 27 13.4996 27C17.1663 27 17.625 26.984 19.065 26.9184C20.5022 26.8526 21.4843 26.6251 22.3433 26.2913C23.2309 25.9464 23.983 25.4841 24.7331 24.7331C25.484 23.9827 25.9453 23.2296 26.2912 22.3419C26.6231 21.4833 26.8509 20.502 26.9184 19.0654C26.9831 17.6254 27 17.1664 27 13.5C27 9.83362 26.9831 9.3735 26.9184 7.9335C26.8509 6.49631 26.6231 5.51531 26.2912 4.65694C25.9453 3.76903 25.484 3.01584 24.7331 2.26547C23.9822 1.51453 23.2312 1.05328 22.3425 0.70875C21.4818 0.374906 20.5002 0.147375 19.063 0.0815628C17.623 0.0160315 17.1646 0 13.497 0H13.5013ZM12.2902 2.43281C12.6496 2.43225 13.0507 2.43281 13.5013 2.43281C17.1058 2.43281 17.533 2.44575 18.9564 2.51044C20.2727 2.57063 20.9871 2.79056 21.463 2.97534C22.093 3.22003 22.5421 3.51253 23.0144 3.98503C23.4869 4.45753 23.7794 4.90753 24.0246 5.53753C24.2094 6.01284 24.4296 6.72722 24.4895 8.04347C24.5542 9.46659 24.5683 9.89409 24.5683 13.4969C24.5683 17.0997 24.5542 17.5272 24.4895 18.9503C24.4293 20.2666 24.2094 20.981 24.0246 21.4563C23.7799 22.0863 23.4869 22.5349 23.0144 23.0071C22.5419 23.4796 22.0933 23.7721 21.463 24.0168C20.9877 24.2024 20.2727 24.4218 18.9564 24.482C17.5333 24.5467 17.1058 24.5607 13.5013 24.5607C9.89645 24.5607 9.46922 24.5467 8.04608 24.482C6.72982 24.4212 6.01544 24.2013 5.53928 24.0165C4.90927 23.7718 4.45926 23.4793 3.98676 23.0068C3.51426 22.5343 3.22175 22.0854 2.9765 21.4552C2.79172 20.9798 2.5715 20.2655 2.51159 18.9492C2.4469 17.5261 2.43396 17.0986 2.43396 13.4935C2.43396 9.88847 2.4469 9.46322 2.51159 8.04009C2.57178 6.72384 2.79172 6.00947 2.9765 5.53359C3.22119 4.90359 3.51426 4.45359 3.98676 3.98109C4.45926 3.50859 4.90927 3.21609 5.53928 2.97084C6.01516 2.78522 6.72982 2.56584 8.04608 2.50538C9.29147 2.44913 9.7741 2.43225 12.2902 2.42944V2.43281ZM20.7075 4.67437C19.8131 4.67437 19.0875 5.39916 19.0875 6.29381C19.0875 7.18819 19.8131 7.91381 20.7075 7.91381C21.6019 7.91381 22.3275 7.18819 22.3275 6.29381C22.3275 5.39944 21.6019 4.67381 20.7075 4.67381V4.67437ZM13.5013 6.56719C9.67257 6.56719 6.56838 9.67134 6.56838 13.5C6.56838 17.3287 9.67257 20.4314 13.5013 20.4314C17.33 20.4314 20.433 17.3287 20.433 13.5C20.433 9.67134 17.3297 6.56719 13.501 6.56719H13.5013ZM13.5013 9C15.9864 9 18.0013 11.0146 18.0013 13.5C18.0013 15.9851 15.9864 18 13.5013 18C11.0158 18 9.00122 15.9851 9.00122 13.5C9.00122 11.0146 11.0158 9 13.5013 9Z"
          fill="#DA297E"/>
    <path d="M13.5013 0C9.83485 0 9.37472 0.0160315 7.93471 0.0815628C6.49751 0.147375 5.51649 0.374906 4.65811 0.70875C3.7702 1.05356 3.017 1.51481 2.26662 2.26547C1.51567 3.01584 1.05442 3.76903 0.708476 4.65666C0.373785 5.51531 0.14597 6.49659 0.081282 7.93322C0.0168751 9.37322 0 9.83362 0 13.5C0 17.1664 0.0163129 17.6251 0.0815636 19.0651C0.147658 20.5023 0.375192 21.4833 0.708757 22.3417C1.05385 23.2296 1.51511 23.9827 2.26577 24.7331C3.01588 25.4841 3.76907 25.9464 4.65642 26.2913C5.51537 26.6251 6.49666 26.8526 7.93358 26.9184C9.3736 26.984 9.83345 27 13.4996 27C17.1663 27 17.625 26.984 19.065 26.9184C20.5022 26.8526 21.4843 26.6251 22.3433 26.2913C23.2309 25.9464 23.983 25.4841 24.7331 24.7331C25.484 23.9827 25.9453 23.2296 26.2912 22.3419C26.6231 21.4833 26.8509 20.502 26.9184 19.0654C26.9831 17.6254 27 17.1664 27 13.5C27 9.83362 26.9831 9.3735 26.9184 7.9335C26.8509 6.49631 26.6231 5.51531 26.2912 4.65694C25.9453 3.76903 25.484 3.01584 24.7331 2.26547C23.9822 1.51453 23.2312 1.05328 22.3425 0.70875C21.4818 0.374906 20.5002 0.147375 19.063 0.0815628C17.623 0.0160315 17.1646 0 13.497 0H13.5013ZM12.2902 2.43281C12.6496 2.43225 13.0507 2.43281 13.5013 2.43281C17.1058 2.43281 17.533 2.44575 18.9564 2.51044C20.2727 2.57063 20.9871 2.79056 21.463 2.97534C22.093 3.22003 22.5421 3.51253 23.0144 3.98503C23.4869 4.45753 23.7794 4.90753 24.0246 5.53753C24.2094 6.01284 24.4296 6.72722 24.4895 8.04347C24.5542 9.46659 24.5683 9.89409 24.5683 13.4969C24.5683 17.0997 24.5542 17.5272 24.4895 18.9503C24.4293 20.2666 24.2094 20.981 24.0246 21.4563C23.7799 22.0863 23.4869 22.5349 23.0144 23.0071C22.5419 23.4796 22.0933 23.7721 21.463 24.0168C20.9877 24.2024 20.2727 24.4218 18.9564 24.482C17.5333 24.5467 17.1058 24.5607 13.5013 24.5607C9.89645 24.5607 9.46922 24.5467 8.04608 24.482C6.72982 24.4212 6.01544 24.2013 5.53928 24.0165C4.90927 23.7718 4.45926 23.4793 3.98676 23.0068C3.51426 22.5343 3.22175 22.0854 2.9765 21.4552C2.79172 20.9798 2.5715 20.2655 2.51159 18.9492C2.4469 17.5261 2.43396 17.0986 2.43396 13.4935C2.43396 9.88847 2.4469 9.46322 2.51159 8.04009C2.57178 6.72384 2.79172 6.00947 2.9765 5.53359C3.22119 4.90359 3.51426 4.45359 3.98676 3.98109C4.45926 3.50859 4.90927 3.21609 5.53928 2.97084C6.01516 2.78522 6.72982 2.56584 8.04608 2.50538C9.29147 2.44913 9.7741 2.43225 12.2902 2.42944V2.43281ZM20.7075 4.67437C19.8131 4.67437 19.0875 5.39916 19.0875 6.29381C19.0875 7.18819 19.8131 7.91381 20.7075 7.91381C21.6019 7.91381 22.3275 7.18819 22.3275 6.29381C22.3275 5.39944 21.6019 4.67381 20.7075 4.67381V4.67437ZM13.5013 6.56719C9.67257 6.56719 6.56838 9.67134 6.56838 13.5C6.56838 17.3287 9.67257 20.4314 13.5013 20.4314C17.33 20.4314 20.433 17.3287 20.433 13.5C20.433 9.67134 17.3297 6.56719 13.501 6.56719H13.5013ZM13.5013 9C15.9864 9 18.0013 11.0146 18.0013 13.5C18.0013 15.9851 15.9864 18 13.5013 18C11.0158 18 9.00122 15.9851 9.00122 13.5C9.00122 11.0146 11.0158 9 13.5013 9Z"
          fill="url(#paint0_radial)"/>
    <path d="M13.5013 0C9.83485 0 9.37472 0.0160315 7.93471 0.0815628C6.49751 0.147375 5.51649 0.374906 4.65811 0.70875C3.7702 1.05356 3.017 1.51481 2.26662 2.26547C1.51567 3.01584 1.05442 3.76903 0.708476 4.65666C0.373785 5.51531 0.14597 6.49659 0.081282 7.93322C0.0168751 9.37322 0 9.83362 0 13.5C0 17.1664 0.0163129 17.6251 0.0815636 19.0651C0.147658 20.5023 0.375192 21.4833 0.708757 22.3417C1.05385 23.2296 1.51511 23.9827 2.26577 24.7331C3.01588 25.4841 3.76907 25.9464 4.65642 26.2913C5.51537 26.6251 6.49666 26.8526 7.93358 26.9184C9.3736 26.984 9.83345 27 13.4996 27C17.1663 27 17.625 26.984 19.065 26.9184C20.5022 26.8526 21.4843 26.6251 22.3433 26.2913C23.2309 25.9464 23.983 25.4841 24.7331 24.7331C25.484 23.9827 25.9453 23.2296 26.2912 22.3419C26.6231 21.4833 26.8509 20.502 26.9184 19.0654C26.9831 17.6254 27 17.1664 27 13.5C27 9.83362 26.9831 9.3735 26.9184 7.9335C26.8509 6.49631 26.6231 5.51531 26.2912 4.65694C25.9453 3.76903 25.484 3.01584 24.7331 2.26547C23.9822 1.51453 23.2312 1.05328 22.3425 0.70875C21.4818 0.374906 20.5002 0.147375 19.063 0.0815628C17.623 0.0160315 17.1646 0 13.497 0H13.5013ZM12.2902 2.43281C12.6496 2.43225 13.0507 2.43281 13.5013 2.43281C17.1058 2.43281 17.533 2.44575 18.9564 2.51044C20.2727 2.57063 20.9871 2.79056 21.463 2.97534C22.093 3.22003 22.5421 3.51253 23.0144 3.98503C23.4869 4.45753 23.7794 4.90753 24.0246 5.53753C24.2094 6.01284 24.4296 6.72722 24.4895 8.04347C24.5542 9.46659 24.5683 9.89409 24.5683 13.4969C24.5683 17.0997 24.5542 17.5272 24.4895 18.9503C24.4293 20.2666 24.2094 20.981 24.0246 21.4563C23.7799 22.0863 23.4869 22.5349 23.0144 23.0071C22.5419 23.4796 22.0933 23.7721 21.463 24.0168C20.9877 24.2024 20.2727 24.4218 18.9564 24.482C17.5333 24.5467 17.1058 24.5607 13.5013 24.5607C9.89645 24.5607 9.46922 24.5467 8.04608 24.482C6.72982 24.4212 6.01544 24.2013 5.53928 24.0165C4.90927 23.7718 4.45926 23.4793 3.98676 23.0068C3.51426 22.5343 3.22175 22.0854 2.9765 21.4552C2.79172 20.9798 2.5715 20.2655 2.51159 18.9492C2.4469 17.5261 2.43396 17.0986 2.43396 13.4935C2.43396 9.88847 2.4469 9.46322 2.51159 8.04009C2.57178 6.72384 2.79172 6.00947 2.9765 5.53359C3.22119 4.90359 3.51426 4.45359 3.98676 3.98109C4.45926 3.50859 4.90927 3.21609 5.53928 2.97084C6.01516 2.78522 6.72982 2.56584 8.04608 2.50538C9.29147 2.44913 9.7741 2.43225 12.2902 2.42944V2.43281ZM20.7075 4.67437C19.8131 4.67437 19.0875 5.39916 19.0875 6.29381C19.0875 7.18819 19.8131 7.91381 20.7075 7.91381C21.6019 7.91381 22.3275 7.18819 22.3275 6.29381C22.3275 5.39944 21.6019 4.67381 20.7075 4.67381V4.67437ZM13.5013 6.56719C9.67257 6.56719 6.56838 9.67134 6.56838 13.5C6.56838 17.3287 9.67257 20.4314 13.5013 20.4314C17.33 20.4314 20.433 17.3287 20.433 13.5C20.433 9.67134 17.3297 6.56719 13.501 6.56719H13.5013ZM13.5013 9C15.9864 9 18.0013 11.0146 18.0013 13.5C18.0013 15.9851 15.9864 18 13.5013 18C11.0158 18 9.00122 15.9851 9.00122 13.5C9.00122 11.0146 11.0158 9 13.5013 9Z"
          fill="url(#paint1_radial)"/>
    <defs>
        <radialGradient id="paint0_radial" cx="0" cy="0" r="1" gradientUnits="userSpaceOnUse"
                        gradientTransform="translate(7.17191 29.0796) rotate(-90) scale(26.759 24.888)">
            <stop stop-color="#FFDD55"/>
            <stop offset="0.1" stop-color="#FFDD55"/>
            <stop offset="0.5" stop-color="#FF543E"/>
            <stop offset="1" stop-color="#C837AB"/>
        </radialGradient>
        <radialGradient id="paint1_radial" cx="0" cy="0" r="1" gradientUnits="userSpaceOnUse"
                        gradientTransform="translate(-4.52264 1.94503) rotate(78.6806) scale(11.9614 49.3053)">
            <stop stop-color="#3771C8"/>
            <stop offset="0.128" stop-color="#3771C8"/>
            <stop offset="1" stop-color="#6600FF" stop-opacity="0"/>
        </radialGradient>
    </defs>
</svg>
