<svg width="94" height="24" viewBox="0 0 94 24" fill="none" xmlns="http://www.w3.org/2000/svg">
    <g clip-path="url(#clip0)">
        <path d="M15.1273 11.3547C15.1373 10.5842 15.3419 9.82882 15.7222 9.15871C16.1026 8.48861 16.6462 7.92559 17.3026 7.52204C16.8856 6.92651 16.3355 6.43642 15.696 6.09068C15.0565 5.74494 14.3451 5.55308 13.6185 5.53035C12.0684 5.36765 10.5657 6.45788 9.77578 6.45788C8.97061 6.45788 7.75446 5.5465 6.44486 5.57345C5.59777 5.60081 4.77223 5.84714 4.04865 6.28842C3.32507 6.7297 2.72813 7.35089 2.31601 8.09147C0.530778 11.1823 1.8624 15.7248 3.5725 18.2232C4.4281 19.4466 5.42805 20.8132 6.73647 20.7647C8.01683 20.7116 8.49502 19.9482 10.0405 19.9482C11.5717 19.9482 12.0203 20.7647 13.3553 20.7339C14.7292 20.7116 15.5948 19.505 16.4204 18.2701C17.0351 17.3984 17.5082 16.4349 17.822 15.4155C17.0238 15.0779 16.3427 14.5128 15.8635 13.7907C15.3843 13.0685 15.1283 12.2213 15.1273 11.3547Z"
              fill="#222222"/>
        <path d="M12.6057 3.88714C13.3548 2.98787 13.7239 1.83202 13.6345 0.665039C12.49 0.785242 11.4329 1.33222 10.6737 2.19698C10.3024 2.61944 10.0181 3.11092 9.83699 3.64332C9.65584 4.17572 9.5814 4.7386 9.61792 5.29979C10.1904 5.30568 10.7567 5.18161 11.2742 4.93691C11.7917 4.69222 12.247 4.33328 12.6057 3.88714Z"
              fill="#222222"/>
        <path d="M31.3122 17.6676H26.9429L25.8936 20.7658H24.043L28.1815 9.3031H30.1043L34.2428 20.7658H32.3606L31.3122 17.6676ZM27.3954 16.2379H30.8588L29.1515 11.2097H29.1037L27.3954 16.2379Z"
              fill="#7D7D7D"/>
        <path d="M43.1804 16.5876C43.1804 19.1847 41.7904 20.8532 39.6928 20.8532C39.1614 20.881 38.6329 20.7586 38.1679 20.5C37.7028 20.2415 37.32 19.8571 37.0632 19.3911H37.0236V23.5305H35.3081V12.4086H36.9686V13.7986H37.0001C37.2687 13.3348 37.658 12.9524 38.1266 12.6923C38.5952 12.4321 39.1255 12.3038 39.6612 12.3211C41.7823 12.3211 43.1804 13.9978 43.1804 16.5876ZM41.4172 16.5876C41.4172 14.8956 40.5428 13.7833 39.2087 13.7833C37.898 13.7833 37.0164 14.9191 37.0164 16.5876C37.0164 18.2715 37.898 19.3992 39.2087 19.3992C40.5428 19.3992 41.4172 18.295 41.4172 16.5876Z"
              fill="#7D7D7D"/>
        <path d="M52.3792 16.5876C52.3792 19.1847 50.9891 20.8532 48.8915 20.8532C48.3601 20.881 47.8316 20.7586 47.3666 20.5C46.9016 20.2415 46.5187 19.8571 46.262 19.3911H46.2223V23.5305H44.5068V12.4086H46.1673V13.7986H46.1988C46.4674 13.3348 46.8567 12.9524 47.3253 12.6923C47.7939 12.4321 48.3242 12.3038 48.8599 12.3211C50.981 12.3211 52.3792 13.9978 52.3792 16.5876ZM50.6159 16.5876C50.6159 14.8956 49.7415 13.7833 48.4074 13.7833C47.0967 13.7833 46.2151 14.9191 46.2151 16.5876C46.2151 18.2715 47.0967 19.3992 48.4074 19.3992C49.7415 19.3992 50.6159 18.295 50.6159 16.5876H50.6159Z"
              fill="#7D7D7D"/>
        <path d="M58.4582 17.572C58.5853 18.7087 59.6896 19.4551 61.1986 19.4551C62.6445 19.4551 63.6847 18.7087 63.6847 17.6837C63.6847 16.794 63.0573 16.2613 61.5718 15.8962L60.0862 15.5383C57.9813 15.0299 57.0042 14.0455 57.0042 12.4482C57.0042 10.4704 58.7277 9.11194 61.1751 9.11194C63.5973 9.11194 65.2578 10.4704 65.3136 12.4482H63.582C63.4783 11.3042 62.5327 10.6137 61.1508 10.6137C59.7689 10.6137 58.8232 11.3124 58.8232 12.3292C58.8232 13.1396 59.4272 13.6164 60.9047 13.9815L62.1676 14.2916C64.5194 14.8478 65.4966 15.7925 65.4966 17.4691C65.4966 19.6137 63.7884 20.9568 61.0714 20.9568C58.5294 20.9568 56.813 19.6452 56.7021 17.5719L58.4582 17.572Z"
              fill="#7D7D7D"/>
        <path d="M69.1989 10.4308V12.4085H70.7882V13.767H69.1989V18.3743C69.1989 19.09 69.5172 19.4235 70.2158 19.4235C70.4044 19.4202 70.5928 19.407 70.7801 19.3838V20.7342C70.466 20.7929 70.1467 20.8195 69.8272 20.8135C68.1352 20.8135 67.4754 20.178 67.4754 18.5572V13.767H66.2603V12.4085H67.4754V10.4308H69.1989Z"
              fill="#7D7D7D"/>
        <path d="M71.7085 16.5876C71.7085 13.9581 73.2572 12.3058 75.6721 12.3058C78.0952 12.3058 79.6367 13.9581 79.6367 16.5876C79.6367 19.2243 78.1033 20.8694 75.6721 20.8694C73.2418 20.8694 71.7085 19.2243 71.7085 16.5876ZM77.8888 16.5876C77.8888 14.7838 77.0622 13.7192 75.6721 13.7192C74.2821 13.7192 73.4564 14.792 73.4564 16.5876C73.4564 18.3986 74.2821 19.4551 75.6721 19.4551C77.0622 19.4551 77.8888 18.3986 77.8888 16.5876H77.8888Z"
              fill="#7D7D7D"/>
        <path d="M81.0513 12.4086H82.6874V13.8311H82.7271C82.8378 13.3868 83.0981 12.9942 83.4641 12.7192C83.8302 12.4442 84.2798 12.3037 84.7373 12.3212C84.935 12.3205 85.1321 12.3419 85.3251 12.3852V13.9897C85.0755 13.9135 84.8151 13.8784 84.5543 13.8861C84.3051 13.8759 84.0566 13.9199 83.826 14.0149C83.5954 14.1098 83.388 14.2536 83.2182 14.4363C83.0484 14.6189 82.9201 14.8362 82.8422 15.0731C82.7642 15.31 82.7385 15.561 82.7667 15.8088V20.7658H81.0513L81.0513 12.4086Z"
              fill="#7D7D7D"/>
        <path d="M93.2341 18.3112C93.0033 19.8283 91.5258 20.8694 89.6355 20.8694C87.2043 20.8694 85.6953 19.2405 85.6953 16.6273C85.6953 14.0059 87.2124 12.3058 89.5634 12.3058C91.8756 12.3058 93.3296 13.8941 93.3296 16.4281V17.0158H87.427V17.1195C87.3997 17.427 87.4383 17.7369 87.54 18.0284C87.6417 18.32 87.8042 18.5865 88.0169 18.8104C88.2295 19.0343 88.4873 19.2104 88.7733 19.327C89.0592 19.4436 89.3666 19.498 89.6752 19.4866C90.0806 19.5246 90.4874 19.4307 90.8351 19.2189C91.1829 19.0072 91.4529 18.6888 91.6052 18.3112L93.2341 18.3112ZM87.4351 15.8169H91.6133C91.6287 15.5403 91.5868 15.2636 91.4901 15.004C91.3935 14.7444 91.2443 14.5076 91.0518 14.3085C90.8593 14.1093 90.6277 13.9521 90.3716 13.8466C90.1155 13.7412 89.8403 13.6899 89.5634 13.6958C89.2841 13.6941 89.0071 13.7478 88.7486 13.8537C88.4901 13.9596 88.2552 14.1157 88.0573 14.3129C87.8594 14.5101 87.7026 14.7445 87.5958 15.0027C87.489 15.2608 87.4344 15.5375 87.4351 15.8169V15.8169Z"
              fill="#7D7D7D"/>
        <path d="M26.1758 3.00329H26.9123C27.0391 3.01908 27.1677 3.00843 27.2902 2.97202C27.4127 2.93561 27.5263 2.87423 27.6238 2.79174C27.7214 2.70925 27.8008 2.60745 27.8571 2.49275C27.9133 2.37804 27.9452 2.25293 27.9507 2.12529C27.9507 1.61733 27.5685 1.28921 26.9204 1.28921C26.7905 1.27106 26.6583 1.27912 26.5316 1.31291C26.4049 1.3467 26.2862 1.40554 26.1826 1.48595C26.079 1.56637 25.9925 1.66673 25.9284 1.7811C25.8642 1.89548 25.8236 2.02155 25.8089 2.15188H25.0003C25.0142 1.9153 25.0767 1.68411 25.1838 1.47272C25.291 1.26133 25.4405 1.07425 25.623 0.923139C25.8056 0.772028 26.0173 0.660117 26.245 0.594375C26.4727 0.528634 26.7115 0.510468 26.9465 0.541009C28.031 0.541009 28.7945 1.14812 28.7945 2.02207C28.7971 2.31485 28.6991 2.59964 28.517 2.82891C28.3349 3.05818 28.0797 3.21805 27.7939 3.28183V3.34674C28.1327 3.36176 28.4517 3.5103 28.6813 3.75988C28.9108 4.00946 29.0322 4.33977 29.019 4.67861C28.9939 4.9222 28.9205 5.15834 28.8029 5.37318C28.6854 5.58802 28.5262 5.77724 28.3346 5.92974C28.143 6.08225 27.9229 6.19498 27.6872 6.26132C27.4515 6.32766 27.2049 6.34627 26.9619 6.31608C26.7184 6.34928 26.4706 6.33311 26.2335 6.26853C25.9964 6.20395 25.7747 6.09229 25.5816 5.9402C25.3886 5.78811 25.2281 5.5987 25.1098 5.38327C24.9915 5.16785 24.9178 4.9308 24.8931 4.68628H25.7143C25.7639 5.21317 26.2479 5.55305 26.9619 5.55305C27.6758 5.55305 28.1419 5.17129 28.1419 4.63313C28.1419 4.08731 27.7029 3.75107 26.9357 3.75107H26.1758V3.00329Z"
              fill="#7D7D7D"/>
        <path d="M29.9521 5.0072C29.9521 4.25901 30.5101 3.82767 31.4981 3.76637L32.624 3.70147V3.3427C32.624 2.90369 32.3347 2.6558 31.7731 2.6558C31.3151 2.6558 30.9987 2.82392 30.9068 3.11779H30.1126C30.1964 2.40385 30.8689 1.94592 31.8118 1.94592C32.8539 1.94592 33.4416 2.46469 33.4416 3.3427V6.18268H32.6511V5.59855H32.5862C32.4544 5.80808 32.2694 5.97889 32.0501 6.09355C31.8308 6.2082 31.5849 6.26259 31.3377 6.25116C31.1632 6.26931 30.9868 6.2507 30.82 6.19651C30.6531 6.14233 30.4995 6.05378 30.3689 5.93658C30.2384 5.81938 30.1338 5.67612 30.0621 5.51605C29.9903 5.35597 29.9528 5.18263 29.9521 5.0072ZM32.624 4.65203V4.30453L31.609 4.36943C31.0365 4.40774 30.7769 4.60245 30.7769 4.96888C30.7769 5.34298 31.1014 5.56068 31.5477 5.56068C31.6784 5.57392 31.8105 5.56072 31.9361 5.52187C32.0616 5.48302 32.1781 5.41931 32.2785 5.33453C32.3789 5.24976 32.4613 5.14565 32.5206 5.0284C32.58 4.91114 32.6151 4.78315 32.624 4.65203Z"
              fill="#7D7D7D"/>
        <path d="M35.6186 2.71663V6.18266H34.7983V2.02612H37.5351V2.71658L35.6186 2.71663Z" fill="#7D7D7D"/>
        <path d="M42.5061 4.10262C42.5061 5.42322 41.8382 6.2512 40.7889 6.2512C40.5313 6.2688 40.2741 6.21243 40.0475 6.08874C39.8208 5.96505 39.6343 5.77919 39.5097 5.55304H39.4448V7.5646H38.6245V2.02616H39.4142V2.71308H39.4755C39.6023 2.47903 39.7912 2.28457 40.0216 2.15119C40.2519 2.0178 40.5147 1.95067 40.7808 1.95722C41.8382 1.9572 42.5061 2.78156 42.5061 4.10262ZM41.6624 4.10262C41.6624 3.22462 41.2468 2.69412 40.5518 2.69412C39.8613 2.69412 39.4295 3.23588 39.4295 4.10623C39.4295 4.97252 39.8613 5.51473 40.5482 5.51473C41.2468 5.51472 41.6624 4.98422 41.6624 4.10262Z"
              fill="#7D7D7D"/>
        <path d="M43.599 7.67139V6.96511C43.6878 6.97639 43.7772 6.98151 43.8667 6.98043C44.0415 6.99338 44.2149 6.94133 44.3536 6.83427C44.4924 6.72721 44.5867 6.57269 44.6185 6.40035L44.6798 6.19798L43.1753 2.02612H44.0686L45.1107 5.32764H45.1756L46.2141 2.02612H47.084L45.5344 6.35438C45.1792 7.3658 44.7862 7.69032 43.9389 7.69032C43.8703 7.69031 43.6756 7.68265 43.599 7.67139Z"
              fill="#7D7D7D"/>
        <path d="M47.7231 5.00309H48.5399C48.6201 5.36955 48.9635 5.56063 49.444 5.56063C49.9903 5.56063 50.3256 5.31995 50.3256 4.94586C50.3256 4.54518 50.0245 4.35407 49.444 4.35407H48.822V3.71676H49.4332C49.929 3.71676 50.1814 3.52611 50.1814 3.17861C50.1814 2.87347 49.9371 2.64045 49.4332 2.64045C48.9743 2.64045 48.639 2.83517 48.5858 3.16329H47.7953C47.8544 2.78625 48.0591 2.44747 48.3654 2.21981C48.6717 1.99215 49.0551 1.89379 49.4332 1.9459C50.4212 1.9459 50.9864 2.39256 50.9864 3.09478C50.991 3.29033 50.9283 3.48153 50.8089 3.63642C50.6894 3.79132 50.5204 3.90051 50.3301 3.94574V4.01064C50.5567 4.03987 50.7646 4.15125 50.9145 4.32364C51.0644 4.49604 51.1458 4.71746 51.1432 4.94588C51.1432 5.73603 50.4707 6.25882 49.444 6.25882C48.5362 6.2588 47.7989 5.84279 47.7231 5.00309Z"
              fill="#7D7D7D"/>
        <path d="M52.3242 6.18265V2.02612H53.1373V4.88505H53.2022L55.1178 2.02613H55.9309V6.18266H55.1178V3.30844H55.0565L53.1373 6.18267L52.3242 6.18265Z"
              fill="#7D7D7D"/>
        <path d="M60.4103 2.71658H59.1013V6.18261H58.2801V2.71658H56.9712V2.02612H60.4103V2.71658Z" fill="#7D7D7D"/>
        <path d="M64.8291 5.06035C64.7174 5.44021 64.4757 5.76873 64.1463 5.98852C63.817 6.20832 63.4208 6.30542 63.0272 6.26286C62.7533 6.27009 62.4812 6.21764 62.2296 6.10915C61.9781 6.00066 61.7532 5.83874 61.5705 5.63461C61.3878 5.43048 61.2517 5.18905 61.1717 4.92706C61.0917 4.66507 61.0696 4.3888 61.1071 4.11744C61.0706 3.84523 61.0931 3.56838 61.1729 3.3056C61.2527 3.04283 61.3881 2.80028 61.5698 2.59436C61.7515 2.38845 61.9754 2.22399 62.2262 2.1121C62.477 2.00022 62.7489 1.94353 63.0236 1.94587C64.1801 1.94587 64.8787 2.73602 64.8787 4.04125V4.32749H61.9436V4.37346C61.9306 4.52603 61.9497 4.67962 61.9996 4.82438C62.0495 4.96914 62.1291 5.10186 62.2334 5.214C62.3376 5.32615 62.4642 5.41524 62.6049 5.47556C62.7457 5.53587 62.8975 5.56607 63.0506 5.56422C63.2467 5.58767 63.4453 5.55228 63.6212 5.46255C63.7972 5.37283 63.9424 5.23282 64.0386 5.06032L64.8291 5.06035ZM61.9436 3.72081H64.0422C64.0525 3.58138 64.0336 3.44132 63.9866 3.30963C63.9397 3.17794 63.8657 3.05753 63.7694 2.95613C63.6732 2.85473 63.5567 2.77459 63.4277 2.72084C63.2986 2.6671 63.1597 2.64094 63.0199 2.64405C62.878 2.64211 62.7371 2.66865 62.6057 2.72209C62.4742 2.77552 62.3547 2.85477 62.2544 2.95515C62.1541 3.05553 62.0749 3.175 62.0215 3.30651C61.9681 3.43802 61.9416 3.5789 61.9436 3.72081H61.9436Z"
              fill="#7D7D7D"/>
        <path d="M68.3071 2.02612H70.1812C70.9943 2.02612 71.4712 2.43808 71.4712 3.08304C71.4724 3.28769 71.4034 3.48657 71.2756 3.6464C71.1477 3.80622 70.9689 3.9173 70.769 3.96104V4.02594C71.0117 4.04128 71.2393 4.14926 71.4047 4.32759C71.5701 4.50592 71.6607 4.74096 71.6578 4.98417C71.6578 5.70938 71.1124 6.18264 70.2002 6.18264H68.3071V2.02612ZM69.1202 2.65578V3.73208H69.9333C70.4291 3.73208 70.6662 3.54143 70.6662 3.18987C70.6662 2.86581 70.4598 2.65577 70.0244 2.65577L69.1202 2.65578ZM69.1202 4.33516V5.55301H70.0929C70.5779 5.55301 70.8375 5.33892 70.8375 4.94589C70.8375 4.52988 70.5436 4.33517 69.9901 4.33517L69.1202 4.33516Z"
              fill="#7D7D7D"/>
    </g>
    <defs>
        <clipPath id="clip0">
            <rect x="0.571289" y="0.00012207" width="93.2308" height="23.9999" fill="white"/>
        </clipPath>
    </defs>
</svg>
