<svg width="21" height="20" viewBox="0 0 21 20" fill="none" xmlns="http://www.w3.org/2000/svg">
<path d="M1.53128 1.90735e-06C0.000281929 1.90735e-06 0.00979756 0.792002 0.00979756 1C-0.000202437 6 2.33889 10.8281 5.75589 14.2441C9.17289 17.6601 14 20.0002 19 19.9902C19.208 19.9902 20 19.9997 20 18.4687V14.2715C20 13.7725 19.6259 13.3546 19.1289 13.3066C18.2889 13.2246 17.002 13.059 16 12.75C15.548 12.611 15.1989 12.4831 14.9239 12.3691C14.6899 12.2721 14.4241 12.3249 14.2461 12.5039L11.9434 14.8066C10.5164 14.0346 9.21325 13.0638 8.07425 11.9258C6.93525 10.7878 5.96439 9.48364 5.19339 8.05664L7.49613 5.75391C7.67513 5.57491 7.72689 5.30917 7.63089 5.07617C7.51689 4.80117 7.38903 4.452 7.25003 4C6.94203 2.998 6.77539 1.7111 6.69339 0.871095C6.64539 0.374096 6.22755 1.90735e-06 5.72855 1.90735e-06H1.53128ZM16 1.5V4H12V6H16V8.5L20.5 5L16 1.5Z" fill="#00AED6"/>
</svg>
