<svg width="109" height="28" viewBox="0 0 109 28" fill="none" xmlns="http://www.w3.org/2000/svg">
<g clip-path="url(#clip0)">
<path d="M16.982 13.247C16.9935 12.3481 17.2323 11.4668 17.676 10.685C18.1197 9.90323 18.754 9.24638 19.5198 8.77558C19.0333 8.08079 18.3915 7.50901 17.6454 7.10565C16.8993 6.70229 16.0694 6.47845 15.2216 6.45193C13.4132 6.26211 11.66 7.53405 10.7385 7.53405C9.79913 7.53405 8.38028 6.47078 6.85242 6.50221C5.86415 6.53414 4.90101 6.82152 4.05683 7.33635C3.21266 7.85118 2.51624 8.5759 2.03543 9.4399C-0.0473444 13.0459 1.50621 18.3454 3.50133 21.2602C4.49953 22.6875 5.66614 24.2819 7.19263 24.2253C8.68638 24.1634 9.24427 23.2728 11.0474 23.2728C12.8337 23.2728 13.3571 24.2253 14.9146 24.1894C16.5175 24.1634 17.5274 22.7557 18.4905 21.3149C19.2077 20.2979 19.7596 19.1739 20.1258 17.9846C19.1945 17.5907 18.3998 16.9314 17.8408 16.089C17.2817 15.2465 16.983 14.2581 16.982 13.247Z" fill="white"/>
<path d="M14.0402 4.53499C14.9142 3.48585 15.3448 2.13735 15.2405 0.775879C13.9053 0.916116 12.6719 1.55425 11.7862 2.56314C11.3531 3.05601 11.0214 3.6294 10.8101 4.25054C10.5987 4.87167 10.5119 5.52837 10.5545 6.18309C11.2223 6.18996 11.883 6.04521 12.4868 5.75973C13.0906 5.47426 13.6217 5.0555 14.0402 4.53499Z" fill="white"/>
<path d="M35.8641 20.6121H30.7666L29.5424 24.2267H27.3833L32.2116 10.8535H34.4548L39.2831 24.2267H37.0872L35.8641 20.6121ZM31.2945 18.9441H35.3351L33.3432 13.0778H33.2875L31.2945 18.9441Z" fill="white"/>
<path d="M49.7108 19.352C49.7108 22.3818 48.0891 24.3285 45.6418 24.3285C45.0219 24.3609 44.4053 24.2181 43.8628 23.9164C43.3202 23.6147 42.8736 23.1664 42.574 22.6227H42.5277V27.452H40.5264V14.4764H42.4636V16.0981H42.5004C42.8137 15.5569 43.2679 15.1109 43.8146 14.8074C44.3613 14.5038 44.98 14.3542 45.605 14.3744C48.0795 14.3744 49.7108 16.3305 49.7108 19.352ZM47.6537 19.352C47.6537 17.378 46.6335 16.0802 45.077 16.0802C43.5479 16.0802 42.5193 17.4053 42.5193 19.352C42.5193 21.3165 43.5479 22.6321 45.077 22.6321C46.6335 22.6321 47.6537 21.3438 47.6537 19.352Z" fill="white"/>
<path d="M60.4417 19.3519C60.4417 22.3818 58.82 24.3285 56.3727 24.3285C55.7528 24.3609 55.1363 24.2181 54.5937 23.9164C54.0512 23.6147 53.6045 23.1664 53.305 22.6226H53.2587V27.452H51.2573V14.4764H53.1945V16.0981H53.2313C53.5447 15.5569 53.9988 15.1109 54.5455 14.8074C55.0922 14.5038 55.7109 14.3542 56.3359 14.3744C58.8105 14.3744 60.4417 16.3305 60.4417 19.3519ZM58.3846 19.3519C58.3846 17.378 57.3645 16.0802 55.808 16.0802C54.2788 16.0802 53.2503 17.4053 53.2503 19.3519C53.2503 21.3165 54.2788 22.6321 55.808 22.6321C57.3645 22.6321 58.3846 21.3438 58.3846 19.3519H58.3846Z" fill="white"/>
<path d="M67.5345 20.5004C67.6828 21.8266 68.9712 22.6973 70.7317 22.6973C72.4186 22.6973 73.6322 21.8266 73.6322 20.6308C73.6322 19.5928 72.9002 18.9713 71.1671 18.5453L69.4339 18.1278C66.9782 17.5346 65.8382 16.3862 65.8382 14.5226C65.8382 12.2153 67.849 10.6304 70.7043 10.6304C73.5302 10.6304 75.4674 12.2153 75.5326 14.5226H73.5123C73.3913 13.1881 72.2881 12.3825 70.6759 12.3825C69.0637 12.3825 67.9605 13.1975 67.9605 14.3838C67.9605 15.3293 68.6651 15.8856 70.3888 16.3115L71.8622 16.6733C74.606 17.3222 75.7461 18.4244 75.7461 20.3804C75.7461 22.8824 73.7531 24.4494 70.5833 24.4494C67.6176 24.4494 65.6152 22.9192 65.4858 20.5003L67.5345 20.5004Z" fill="white"/>
<path d="M80.0652 12.1689V14.4763H81.9193V16.0612H80.0652V21.4363C80.0652 22.2714 80.4364 22.6605 81.2515 22.6605C81.4716 22.6567 81.6913 22.6412 81.9098 22.6142V24.1896C81.5434 24.2581 81.1709 24.2891 80.7982 24.2821C78.8242 24.2821 78.0544 23.5407 78.0544 21.6498V16.0612H76.6367V14.4763H78.0543V12.1689H80.0652Z" fill="white"/>
<path d="M82.9932 19.3519C82.9932 16.2842 84.7999 14.3564 87.6174 14.3564C90.4443 14.3564 92.2427 16.2841 92.2427 19.3519C92.2427 22.4281 90.4538 24.3474 87.6174 24.3474C84.782 24.3474 82.9932 22.4281 82.9932 19.3519ZM90.2035 19.3519C90.2035 17.2475 89.2391 16.0055 87.6174 16.0055C85.9957 16.0055 85.0324 17.257 85.0324 19.3519C85.0324 21.4647 85.9957 22.6973 87.6174 22.6973C89.2391 22.6973 90.2035 21.4647 90.2035 19.3519H90.2035Z" fill="white"/>
<path d="M93.8926 14.4763H95.8014V16.1358H95.8477C95.9768 15.6175 96.2805 15.1595 96.7076 14.8387C97.1347 14.5179 97.6592 14.3539 98.193 14.3743C98.4236 14.3734 98.6536 14.3985 98.8787 14.4489V16.3209C98.5875 16.2319 98.2838 16.1911 97.9794 16.2C97.6887 16.1882 97.3988 16.2394 97.1298 16.3502C96.8607 16.461 96.6188 16.6288 96.4207 16.8419C96.2225 17.055 96.0729 17.3084 95.982 17.5849C95.891 17.8613 95.861 18.1541 95.8939 18.4432V24.2264H93.8926L93.8926 14.4763Z" fill="white"/>
<path d="M108.106 21.3627C107.837 23.1327 106.113 24.3474 103.908 24.3474C101.072 24.3474 99.311 22.447 99.311 19.3982C99.311 16.3399 101.081 14.3564 103.824 14.3564C106.521 14.3564 108.218 16.2095 108.218 19.1658V19.8515H101.331V19.9724C101.3 20.3312 101.344 20.6927 101.463 21.0329C101.582 21.373 101.771 21.684 102.02 21.9452C102.268 22.2064 102.568 22.4118 102.902 22.5478C103.236 22.6839 103.594 22.7474 103.954 22.7341C104.427 22.7784 104.902 22.6689 105.307 22.4218C105.713 22.1747 106.028 21.8033 106.206 21.3627L108.106 21.3627ZM101.341 18.4527H106.215C106.233 18.1301 106.184 17.8072 106.072 17.5044C105.959 17.2015 105.785 16.9253 105.56 16.6929C105.336 16.4605 105.066 16.2771 104.767 16.1541C104.468 16.0311 104.147 15.9712 103.824 15.9781C103.498 15.9762 103.175 16.0388 102.873 16.1624C102.572 16.2859 102.298 16.468 102.067 16.6981C101.836 16.9281 101.653 17.2017 101.528 17.5028C101.404 17.804 101.34 18.1268 101.341 18.4527V18.4527Z" fill="white"/>
<path d="M29.872 3.50371H30.7312C30.8792 3.52213 31.0293 3.50971 31.1722 3.46723C31.315 3.42476 31.4476 3.35314 31.5614 3.25691C31.6752 3.16067 31.7679 3.0419 31.8335 2.90808C31.8991 2.77426 31.9364 2.6283 31.9428 2.47938C31.9428 1.88676 31.4969 1.50395 30.7407 1.50395C30.5892 1.48278 30.4349 1.49218 30.2871 1.5316C30.1392 1.57103 30.0008 1.63968 29.8799 1.73349C29.7591 1.82731 29.6582 1.94439 29.5833 2.07783C29.5085 2.21127 29.4611 2.35836 29.444 2.51041H28.5006C28.5168 2.23439 28.5897 1.96468 28.7147 1.71805C28.8397 1.47142 29.0141 1.25317 29.2271 1.07687C29.4401 0.900578 29.6871 0.770015 29.9528 0.693316C30.2184 0.616617 30.497 0.595424 30.7712 0.631055C32.0364 0.631055 32.9272 1.33935 32.9272 2.35896C32.9302 2.70053 32.8159 3.03279 32.6034 3.30027C32.391 3.56775 32.0932 3.75427 31.7598 3.82868V3.9044C32.155 3.92193 32.5272 4.09523 32.7951 4.3864C33.0629 4.67758 33.2045 5.06295 33.189 5.45826C33.1598 5.74245 33.0741 6.01794 32.937 6.26858C32.7999 6.51923 32.6142 6.73999 32.3906 6.91791C32.1671 7.09584 31.9103 7.22735 31.6353 7.30475C31.3603 7.38215 31.0726 7.40386 30.7891 7.36863C30.505 7.40737 30.216 7.3885 29.9393 7.31316C29.6627 7.23782 29.404 7.10755 29.1788 6.93011C28.9536 6.75267 28.7664 6.5317 28.6283 6.28036C28.4903 6.02903 28.4043 5.75248 28.3755 5.46721H29.3336C29.3914 6.08191 29.9562 6.47843 30.7891 6.47843C31.622 6.47843 32.1658 6.03305 32.1658 5.4052C32.1658 4.7684 31.6536 4.37613 30.7586 4.37613H29.872V3.50371Z" fill="white"/>
<path d="M34.2773 5.84151C34.2773 4.96862 34.9283 4.46539 36.081 4.39387L37.3945 4.31816V3.89959C37.3945 3.38742 37.0569 3.09821 36.4017 3.09821C35.8675 3.09821 35.4983 3.29435 35.3911 3.6372H34.4645C34.5623 2.80427 35.3469 2.27002 36.447 2.27002C37.6627 2.27002 38.3484 2.87525 38.3484 3.89959V7.2129H37.4261V6.53142H37.3504C37.1967 6.77587 36.9809 6.97515 36.725 7.10892C36.469 7.24268 36.1822 7.30614 35.8938 7.2928C35.6902 7.31397 35.4845 7.29225 35.2898 7.22904C35.0951 7.16583 34.9159 7.06252 34.7636 6.92579C34.6113 6.78905 34.4893 6.62192 34.4056 6.43517C34.3218 6.24841 34.2781 6.04618 34.2773 5.84151ZM37.3945 5.42715V5.02173L36.2103 5.09745C35.5425 5.14214 35.2396 5.3693 35.2396 5.79681C35.2396 6.23325 35.6182 6.48723 36.1388 6.48723C36.2914 6.50268 36.4455 6.48728 36.5919 6.44196C36.7384 6.39663 36.8743 6.32231 36.9914 6.2234C37.1086 6.12449 37.2046 6.00303 37.2739 5.86624C37.3431 5.72945 37.3842 5.58012 37.3945 5.42715Z" fill="white"/>
<path d="M40.8882 3.16936V7.21306H39.9312V2.36377H43.1241V3.1693L40.8882 3.16936Z" fill="white"/>
<path d="M48.9246 4.78619C48.9246 6.32689 48.1453 7.29287 46.9211 7.29287C46.6206 7.31339 46.3205 7.24763 46.0561 7.10333C45.7917 6.95902 45.5741 6.74218 45.4288 6.47834H45.353V8.82516H44.396V2.36365H45.3173V3.16506H45.3888C45.5367 2.892 45.7572 2.66513 46.0259 2.50951C46.2947 2.3539 46.6012 2.27558 46.9116 2.28323C48.1452 2.28319 48.9246 3.24495 48.9246 4.78619ZM47.9402 4.78619C47.9402 3.76186 47.4553 3.14294 46.6445 3.14294C45.839 3.14294 45.3352 3.77499 45.3352 4.7904C45.3352 5.80107 45.8389 6.43365 46.6403 6.43365C47.4553 6.43364 47.9402 5.81472 47.9402 4.78619Z" fill="white"/>
<path d="M50.1989 8.94991V8.12592C50.3025 8.13908 50.4068 8.14505 50.5112 8.14379C50.7151 8.1589 50.9174 8.09817 51.0793 7.97327C51.2412 7.84838 51.3512 7.6681 51.3883 7.46704L51.4598 7.23093L49.7046 2.36377H50.7468L51.9626 6.21554H52.0383L53.2499 2.36377H54.2647L52.4569 7.41341C52.0425 8.59339 51.584 8.972 50.5954 8.972C50.5155 8.97199 50.2883 8.96305 50.1989 8.94991Z" fill="white"/>
<path d="M55.0103 5.83705H55.9631C56.0567 6.26458 56.4574 6.4875 57.0179 6.4875C57.6552 6.4875 58.0465 6.20671 58.0465 5.77028C58.0465 5.30281 57.6952 5.07985 57.0179 5.07985H56.2923V4.33632H57.0053C57.5837 4.33632 57.8782 4.11389 57.8782 3.70847C57.8782 3.35248 57.5932 3.08063 57.0053 3.08063C56.47 3.08063 56.0788 3.3078 56.0167 3.69061H55.0944C55.1633 3.25073 55.4022 2.85548 55.7595 2.58988C56.1169 2.32427 56.5642 2.20952 57.0053 2.27031C58.1579 2.27031 58.8174 2.79142 58.8174 3.61068C58.8227 3.83882 58.7496 4.06189 58.6103 4.2426C58.4709 4.42331 58.2737 4.5507 58.0517 4.60347V4.67919C58.316 4.71328 58.5587 4.84322 58.7335 5.04435C58.9084 5.24548 59.0033 5.5038 59.0003 5.7703C59.0003 6.69214 58.2158 7.30206 57.0179 7.30206C55.9589 7.30203 55.0986 6.81669 55.0103 5.83705Z" fill="white"/>
<path d="M60.3789 7.21306V2.36377H61.3275V5.69918H61.4032L63.6381 2.36378H64.5867V7.21307H63.6381V3.8598H63.5666L61.3275 7.21308L60.3789 7.21306Z" fill="white"/>
<path d="M69.8125 3.1693H68.2855V7.213H67.3274V3.1693H65.8003V2.36377H69.8125V3.1693Z" fill="white"/>
<path d="M74.9676 5.90366C74.8372 6.34683 74.5552 6.7301 74.171 6.98653C73.7867 7.24296 73.3246 7.35624 72.8653 7.30659C72.5458 7.31502 72.2283 7.25383 71.9348 7.12726C71.6414 7.00069 71.3789 6.81178 71.1658 6.57363C70.9527 6.33548 70.7939 6.05381 70.7006 5.74815C70.6072 5.4425 70.5815 5.12019 70.6252 4.80359C70.5826 4.48603 70.6088 4.16302 70.702 3.85646C70.7951 3.54989 70.953 3.26691 71.165 3.02668C71.377 2.78644 71.6382 2.59457 71.9308 2.46404C72.2234 2.33351 72.5407 2.26737 72.8611 2.2701C74.2104 2.2701 75.0254 3.19194 75.0254 4.71471V5.04866H71.6011V5.10229C71.586 5.28028 71.6082 5.45948 71.6664 5.62836C71.7247 5.79725 71.8176 5.95209 71.9392 6.08292C72.0608 6.21376 72.2085 6.3177 72.3727 6.38807C72.5369 6.45844 72.714 6.49367 72.8926 6.49151C73.1214 6.51887 73.3531 6.47758 73.5584 6.3729C73.7636 6.26822 73.9331 6.10487 74.0453 5.90362L74.9676 5.90366ZM71.6011 4.34086H74.0494C74.0615 4.17819 74.0395 4.01479 73.9847 3.86116C73.9299 3.70752 73.8435 3.56704 73.7312 3.44874C73.6189 3.33044 73.4831 3.23694 73.3325 3.17423C73.1819 3.11153 73.0199 3.08101 72.8568 3.08464C72.6913 3.08239 72.5269 3.11334 72.3735 3.17568C72.2201 3.23803 72.0808 3.33048 71.9637 3.44759C71.8467 3.5647 71.7543 3.70409 71.692 3.85752C71.6297 4.01094 71.5988 4.1753 71.6011 4.34086H71.6011Z" fill="white"/>
<path d="M79.0249 2.36377H81.2113C82.16 2.36377 82.7163 2.84439 82.7163 3.59684C82.7178 3.8356 82.6372 4.06763 82.4881 4.25409C82.3389 4.44055 82.1303 4.57014 81.897 4.62117V4.69689C82.1802 4.71478 82.4458 4.84077 82.6387 5.04881C82.8317 5.25686 82.9374 5.53108 82.934 5.81483C82.934 6.6609 82.2977 7.21304 81.2334 7.21304H79.0249V2.36377ZM79.9735 3.09837V4.35405H80.9221C81.5006 4.35405 81.7772 4.13163 81.7772 3.72147C81.7772 3.3434 81.5363 3.09836 81.0284 3.09836L79.9735 3.09837ZM79.9735 5.05765V6.47847H81.1083C81.6741 6.47847 81.977 6.2287 81.977 5.77017C81.977 5.28482 81.6342 5.05766 80.9884 5.05766L79.9735 5.05765Z" fill="white"/>
</g>
<defs>
<clipPath id="clip0">
<rect width="108.769" height="27.9999" fill="white"/>
</clipPath>
</defs>
</svg>
