<svg width="22" height="24" viewBox="0 0 22 24" fill="none" xmlns="http://www.w3.org/2000/svg">
    <path fill-rule="evenodd" clip-rule="evenodd"
          d="M14.3241 4.44531C12.4959 3.64062 10.4334 3.51563 8.51548 4.12109C4.87095 5.26953 2.50767 8.72656 2.75376 12.5312L0.265478 12.6953C-0.054834 7.73828 3.0272 3.23828 7.76548 1.74219C10.5389 0.867188 13.5467 1.17188 16.0975 2.55078L18.4842 0L19.1209 7.07422L11.6288 7.32422L14.3241 4.44531ZM14.2303 22.2578C13.1795 22.5859 12.0897 22.7539 11.0077 22.7539C9.24204 22.7539 7.48813 22.2969 5.9061 21.4453L3.51548 24L2.88267 16.9258L10.3709 16.6758L7.67954 19.5547C9.49985 20.3555 11.5624 20.4844 13.4803 19.8789C17.1249 18.7266 19.492 15.2656 19.2459 11.4688L21.7303 11.3047C22.0584 16.2539 18.9725 20.7578 14.2303 22.2578Z"
          fill="#00AED6"/>
</svg>
