<svg width="24" height="24" viewBox="0 0 24 24" fill="none" xmlns="http://www.w3.org/2000/svg">
    <path d="M10.021 9.90101C10.211 9.66601 10.305 9.37501 10.305 9.02801V8.41101C10.305 8.06401 10.208 7.77001 10.013 7.53001C9.818 7.29001 9.545 7.17001 9.192 7.17001C8.834 7.17001 8.559 7.29001 8.367 7.53001C8.175 7.77001 8.079 8.06401 8.079 8.41101V9.02801C8.079 9.37001 8.176 9.66001 8.371 9.89701C8.566 10.135 8.845 10.254 9.208 10.254C9.561 10.254 9.832 10.136 10.021 9.90101ZM14.8 13.738C14.442 13.738 14.167 13.858 13.975 14.098C13.783 14.338 13.687 14.629 13.687 14.971V15.596C13.687 15.938 13.787 16.229 13.987 16.469C14.187 16.709 14.464 16.829 14.816 16.829C15.19 16.829 15.468 16.713 15.649 16.48C15.831 16.248 15.921 15.953 15.921 15.595V14.97C15.921 14.628 15.824 14.337 15.629 14.097C15.434 13.858 15.158 13.738 14.8 13.738Z"
          fill="#65AA0F"/>
    <path d="M24 12L20.789 9.645L22.392 6L18.434 5.566L18 1.608L14.355 3.212L12 0L9.645 3.211L6 1.608L5.566 5.566L1.608 6L3.212 9.645L0 12L3.211 14.355L1.608 18L5.566 18.434L6 22.392L9.645 20.788L12 24L14.355 20.789L18 22.392L18.434 18.434L22.392 18L20.788 14.355L24 12ZM6.725 9.028V8.411C6.725 7.727 6.945 7.155 7.386 6.693C7.826 6.231 8.429 6 9.192 6C9.961 6 10.566 6.23 11.006 6.689C11.447 7.148 11.667 7.722 11.667 8.411V9.028C11.667 9.712 11.447 10.282 11.006 10.738C10.565 11.195 9.966 11.423 9.208 11.423C8.439 11.423 7.833 11.195 7.39 10.738C6.947 10.282 6.725 9.712 6.725 9.028ZM9.609 16.959L8.608 16.382L14.304 7.266L15.305 7.843L9.609 16.959ZM17.275 15.597C17.275 16.286 17.055 16.859 16.614 17.315C16.174 17.772 15.574 18 14.816 18C14.047 18 13.441 17.77 12.998 17.311C12.555 16.852 12.333 16.28 12.333 15.597V14.972C12.333 14.294 12.555 13.724 12.998 13.262C13.441 12.8 14.042 12.569 14.8 12.569C15.569 12.569 16.174 12.799 16.614 13.258C17.055 13.717 17.275 14.289 17.275 14.972V15.597Z"
          fill="#65AA0F"/>
</svg>
