<svg width="24" height="24" viewBox="0 0 24 24" fill="none" xmlns="http://www.w3.org/2000/svg">
    <path d="M8.49228 1.40002L5.86151 4.03079H11.1231L8.49228 1.40002ZM12.8769 1.40002L15.5077 4.03079L18.1384 1.40002H12.8769ZM2.35382 5.78464C1.38482 5.78464 0.599976 6.56948 0.599976 7.53848V20.6923C0.599976 21.6613 1.38482 22.4462 2.35382 22.4462H21.6461C22.6151 22.4462 23.4 21.6613 23.4 20.6923V7.53848C23.4 6.56948 22.6151 5.78464 21.6461 5.78464H2.35382ZM4.98459 7.53848C5.71156 7.53848 6.29998 8.1269 6.29998 8.85387C6.29998 9.58084 5.71156 10.1693 4.98459 10.1693C4.25762 10.1693 3.66921 9.58084 3.66921 8.85387C3.66921 8.1269 4.25762 7.53848 4.98459 7.53848ZM12 7.53848C12.7269 7.53848 13.3154 8.1269 13.3154 8.85387C13.3154 9.58084 12.7269 10.1693 12 10.1693C11.273 10.1693 10.6846 9.58084 10.6846 8.85387C10.6846 8.1269 11.273 7.53848 12 7.53848ZM19.0154 7.53848C19.7423 7.53848 20.3307 8.1269 20.3307 8.85387C20.3307 9.58084 19.7423 10.1693 19.0154 10.1693C18.2884 10.1693 17.7 9.58084 17.7 8.85387C17.7 8.1269 18.2884 7.53848 19.0154 7.53848ZM4.34231 11.0462H5.62687C6.52747 11.0462 7.2827 11.7291 7.37215 12.6253L7.61022 15.0163C7.63653 15.2785 7.54436 15.5395 7.35845 15.7254L6.33766 16.7462L5.89919 20.6923H4.06999L3.63153 16.7462L2.61073 15.7254C2.42482 15.5395 2.33265 15.2785 2.35896 15.0163L2.59703 12.6253C2.68648 11.7291 3.44084 11.0462 4.34231 11.0462ZM11.3577 11.0462H12.6423C13.5429 11.0462 14.2981 11.7291 14.3875 12.6253L14.6256 15.0163C14.6519 15.2785 14.5597 15.5395 14.3738 15.7254L13.353 16.7462L12.9146 20.6923H11.0854L10.6469 16.7462L9.62612 15.7254C9.44021 15.5395 9.34804 15.2785 9.37434 15.0163L9.61242 12.6253C9.70186 11.7291 10.4562 11.0462 11.3577 11.0462ZM18.3731 11.0462H19.6576C20.5582 11.0462 21.3135 11.7291 21.4029 12.6253L21.641 15.0163C21.6673 15.2785 21.5751 15.5395 21.3892 15.7254L20.3684 16.7462L19.93 20.6923H18.1008L17.6623 16.7462L16.6415 15.7254C16.4556 15.5395 16.3634 15.2785 16.3897 15.0163L16.6278 12.6253C16.7172 11.7291 17.4716 11.0462 18.3731 11.0462Z"
          fill="#222222"/>
</svg>
