<svg width="17" height="28" viewBox="0 0 17 28" fill="none" xmlns="http://www.w3.org/2000/svg">
<path d="M1.59954 7.89072C1.59954 4.05435 4.70952 0.944265 8.54598 0.944265C12.3824 0.944265 15.4924 4.05435 15.4924 7.89072C15.4924 11.7272 12.3824 14.8375 8.54598 14.8375C4.70953 14.8375 1.59954 11.7272 1.59954 7.89072ZM5.55105 7.89082C5.55105 9.54485 6.89195 10.8859 8.54598 10.8859C10.2 10.8859 11.5409 9.54485 11.5409 7.89082C11.5409 6.23679 10.2 4.89588 8.54598 4.89588C6.89196 4.89588 5.55105 6.23679 5.55105 7.89082Z" fill="#F7931E" stroke="#E0E0E0" stroke-width="0.174662"/>
<path d="M11.0121 20.4359L10.8521 20.4685L10.9681 20.5835L15.2183 24.7959C15.9317 25.5081 15.9326 26.6637 15.2204 27.3771C14.5082 28.0903 13.3527 28.0915 12.6392 27.3791L12.6384 27.3783L8.51184 23.3599L8.44811 23.2978L8.38724 23.3627L4.64004 27.3544C4.6399 27.3545 4.63977 27.3547 4.63964 27.3548C4.28156 27.726 3.80418 27.9127 3.32601 27.9127C2.86978 27.9127 2.41345 27.743 2.05925 27.4015C1.3336 26.7018 1.31256 25.5463 2.01228 24.8207L2.01251 24.8204L6.04698 20.6041L6.15769 20.4884L6.00047 20.458C3.12436 19.9014 1.38011 18.542 1.29612 18.4746L1.24148 18.5427L1.29612 18.4746C0.509756 17.844 0.383435 16.6953 1.01408 15.9088L1.01408 15.9088C1.64462 15.1225 2.79323 14.9961 3.5798 15.6267L3.5798 15.6267C3.61852 15.6573 5.47282 17.0406 8.45075 17.0426H8.45087C11.4292 17.0406 13.2456 15.6571 13.2839 15.6267C14.0704 14.9961 15.219 15.1225 15.8496 15.9088L15.9177 15.8542L15.8496 15.9088C16.4802 16.6953 16.3539 17.844 15.5675 18.4746C15.4841 18.5415 13.8093 19.8661 11.0121 20.4359Z" fill="#F7931E" stroke="#E0E0E0" stroke-width="0.174662"/>
<path d="M8.45255 16.9557C8.44782 16.9556 8.45016 16.9555 8.45255 16.9555L8.45255 16.9557ZM8.45255 16.9557C8.45728 16.9556 8.45495 16.9555 8.45256 16.9555L8.45255 16.9557ZM8.45254 16.9553C8.44829 16.9553 8.44957 16.9554 8.45157 16.9554C8.45188 16.9554 8.45221 16.9554 8.45255 16.9555L8.45254 16.9553ZM8.45256 16.9555C8.45289 16.9554 8.45322 16.9554 8.45354 16.9554C8.45554 16.9554 8.45682 16.9553 8.45256 16.9553L8.45256 16.9555Z" fill="#F7931E" stroke="#E0E0E0" stroke-width="0.174662"/>
</svg>
