<svg width="24" height="24" viewBox="0 0 24 24" fill="none" xmlns="http://www.w3.org/2000/svg">
<path d="M12 0C8.69922 0 6 2.69922 6 6C6 11.1992 12 20.5938 12 20.5938C12 20.5938 18 11.1016 18 6C18 2.69922 15.3008 0 12 0ZM12 4C13.1016 4 14 4.89844 14 6C14 7.10157 13.1016 8 12 8C10.8984 8 10 7.10157 10 6C10 4.89844 10.8984 4 12 4ZM6.28125 16.0625C4.58203 16.3711 3.12891 16.8203 2.0625 17.375C1.52734 17.6524 1.09375 17.9375 0.75 18.3125C0.40625 18.6875 0.15625 19.1602 0.15625 19.6875C0.15625 20.4844 0.675781 21.1289 1.34375 21.5938C2.01172 22.0586 2.88281 22.4336 3.9375 22.75C6.05078 23.3789 8.88672 23.75 12 23.75C15.1133 23.75 17.9492 23.3789 20.0625 22.75C21.1172 22.4336 21.9883 22.0586 22.6562 21.5938C23.3242 21.1289 23.8437 20.4844 23.8437 19.6875C23.8437 19.1524 23.5977 18.668 23.25 18.2813C22.9023 17.8945 22.4727 17.582 21.9375 17.3125C20.8672 16.7695 19.4102 16.3711 17.7187 16.0625L17.4687 17.5313C19.0742 17.8242 20.3984 18.2227 21.25 18.6563C21.6758 18.8711 21.9883 19.0938 22.1562 19.2813C22.3242 19.4688 22.3437 19.5742 22.3437 19.6875C22.3437 19.7891 22.2422 20.0547 21.7812 20.375C21.3203 20.6953 20.582 21.0274 19.625 21.3125C17.7109 21.8828 14.9883 22.25 12 22.25C9.01172 22.25 6.28906 21.8828 4.375 21.3125C3.41797 21.0274 2.67969 20.6953 2.21875 20.375C1.75781 20.0547 1.65625 19.7891 1.65625 19.6875C1.65625 19.6172 1.67187 19.5313 1.84375 19.3438C2.01562 19.1563 2.32031 18.9102 2.75 18.6875C3.60937 18.2422 4.93359 17.8203 6.53125 17.5313L6.28125 16.0625Z"
      fill="#00AED6"/>
</svg>
