<svg width="28" height="27" viewBox="0 0 28 27" fill="none" xmlns="http://www.w3.org/2000/svg">
<path d="M5.34691 0.902916L5.34681 0.902954C4.48385 1.23807 3.75569 1.68404 3.02724 2.41276L3.02716 2.41284C2.29817 3.14127 1.85215 3.86947 1.51587 4.73231L1.51587 4.73232C1.19044 5.56719 0.96649 6.5257 0.902688 7.94253L5.34691 0.902916ZM5.34691 0.902916C6.18159 0.57829 7.13993 0.354597 8.55746 0.289681L5.34691 0.902916ZM3.02634 24.5858L3.02645 24.5859C3.7547 25.315 4.48289 25.762 5.34516 26.0971L5.34518 26.0971C6.18045 26.4217 7.13909 26.6454 8.55633 26.7103C8.55635 26.7103 8.55638 26.7103 8.5564 26.7103L8.54686 26.9184C9.98688 26.984 10.4467 27 14.1129 27C17.7796 27 18.2383 26.984 19.6783 26.9184L19.6688 26.7103C21.0864 26.6454 22.0459 26.4217 22.8811 26.0971L22.8811 26.0971C23.7436 25.762 24.4707 25.315 25.199 24.5859L25.1991 24.5858C25.9281 23.8573 26.3741 23.1291 26.7104 22.2663C27.0331 21.4312 27.257 20.4725 27.3236 19.056C27.3881 17.6206 27.4049 17.1652 27.4049 13.5C27.4049 9.83481 27.3881 9.37827 27.3236 7.94285C27.257 6.52573 27.0331 5.56734 26.7104 4.73255M3.02634 24.5858L19.6669 0.289681C21.0844 0.354596 22.0433 0.578285 22.8804 0.902982L22.8804 0.902999C23.744 1.23775 24.4699 1.68364 25.1991 2.41278L25.1991 2.41284C25.9281 3.14126 26.3741 3.86945 26.7104 4.73255M3.02634 24.5858C2.29761 23.8573 1.85163 23.1292 1.51623 22.2662C1.19185 21.4315 0.96815 20.4731 0.902958 19.0555C0.837924 17.6203 0.821615 17.1651 0.821615 13.5C0.821615 9.83487 0.838485 9.37799 0.902686 7.94259L3.02634 24.5858ZM26.7104 4.73255C26.7103 4.73239 26.7103 4.73223 26.7102 4.73207L26.9045 4.65694M26.7104 4.73255C26.7104 4.73255 26.7104 4.73256 26.7104 4.73257L26.9045 4.65694M26.9045 4.65694C27.2364 5.51531 27.4642 6.49631 27.5317 7.9335M26.9045 4.65694L27.5317 7.9335M27.5317 7.9335C27.5964 9.3735 27.6133 9.83362 27.6133 13.5C27.6133 17.1664 27.5964 17.6254 27.5317 19.0654V7.9335ZM19.5792 2.30232L19.5792 2.30232C20.9185 2.36356 21.6551 2.58833 22.1517 2.78114L22.1517 2.78114C22.8084 3.0362 23.2821 3.34458 23.775 3.83776M19.5792 2.30232L23.6276 23.0071L23.7749 23.1545C23.7749 23.1544 23.7749 23.1544 23.775 23.1544C24.268 22.6617 24.577 22.1886 24.8321 21.5317C25.0249 21.0357 25.2497 20.299 25.3109 18.9599L25.3109 18.9598C25.3758 17.5319 25.3899 17.1007 25.3899 13.4969C25.3899 9.89316 25.3758 9.46192 25.3109 8.03401C25.25 6.69471 25.0249 5.95806 24.8321 5.46204L24.832 5.46195C24.5765 4.80549 24.2682 4.33096 23.775 3.83776M19.5792 2.30232C18.1509 2.23741 17.7199 2.22448 14.1145 2.22448C13.959 2.22448 13.8092 2.22441 13.665 2.22435C13.4708 2.22426 13.2866 2.22418 13.1118 2.22427V2.22087L12.9032 2.2211C10.3851 2.22392 9.8993 2.24083 8.64997 2.29725L8.64981 2.29726C7.31072 2.35878 6.57372 2.58294 6.07685 2.77675C5.42042 3.0323 4.94592 3.34059 4.45273 3.83378C3.95958 4.32692 3.65064 4.80147 3.39558 5.45817L3.39558 5.45818C3.20276 5.95474 2.97799 6.69134 2.91675 8.03058L2.91675 8.03063C2.85184 9.45861 2.83891 9.88767 2.83891 13.4935C2.83891 17.0994 2.85184 17.5307 2.91675 18.9587L3.12487 18.9492L2.91675 18.9587C2.97771 20.298 3.20277 21.0346 3.39561 21.5306L3.39563 21.5307C3.65125 22.1876 3.9596 22.661 4.45273 23.1541C4.94595 23.6473 5.42053 23.9557 6.07713 24.2107L6.07719 24.2107C6.57398 24.4035 7.31055 24.6283 8.64976 24.6901L8.64991 24.6901C10.0778 24.755 10.5088 24.7691 14.1145 24.7691C17.72 24.7691 18.1513 24.755 19.5792 24.6901L19.5792 24.6901M19.5792 2.30232L19.5792 24.6901M23.775 3.83776L23.6276 3.98503L23.775 3.83772C23.775 3.83773 23.775 3.83775 23.775 3.83776ZM19.5792 24.6901C20.918 24.6289 21.6553 24.4048 22.1516 24.211L19.5792 24.6901ZM8.55752 0.289678C9.99223 0.224388 10.4489 0.208346 14.1103 0.208333L8.55752 0.289678ZM14.1145 0.208333C17.7771 0.208346 18.2321 0.224388 19.6668 0.289678L14.1145 0.208333ZM21.3208 4.88271H21.361C22.1218 4.90401 22.7325 5.52794 22.7325 6.29381C22.7325 7.07313 22.1001 7.70548 21.3208 7.70548C20.5415 7.70548 19.9091 7.07313 19.9091 6.29381C19.9091 5.51434 20.5414 4.88271 21.3208 4.88271ZM7.39 13.5C7.39 9.7865 10.4008 6.77567 14.1143 6.77552H14.1145C17.828 6.77567 20.838 9.78646 20.838 13.5C20.838 17.2136 17.8282 20.2231 14.1145 20.2231C10.4009 20.2231 7.39 17.2135 7.39 13.5ZM18.8229 13.5C18.8229 10.8995 16.7147 8.79167 14.1145 8.79167C11.5141 8.79167 9.40617 10.8995 9.40617 13.5C9.40617 16.1002 11.514 18.2083 14.1145 18.2083C16.7148 18.2083 18.8229 16.1002 18.8229 13.5Z" fill="#DA297E"/>
<path d="M5.34691 0.902916L5.34681 0.902954C4.48385 1.23807 3.75569 1.68404 3.02724 2.41276L3.02716 2.41284C2.29817 3.14127 1.85215 3.86947 1.51587 4.73231L1.51587 4.73232C1.19044 5.56719 0.96649 6.5257 0.902688 7.94253L5.34691 0.902916ZM5.34691 0.902916C6.18159 0.57829 7.13993 0.354597 8.55746 0.289681L5.34691 0.902916ZM3.02634 24.5858L3.02645 24.5859C3.7547 25.315 4.48289 25.762 5.34516 26.0971L5.34518 26.0971C6.18045 26.4217 7.13909 26.6454 8.55633 26.7103C8.55635 26.7103 8.55638 26.7103 8.5564 26.7103L8.54686 26.9184C9.98688 26.984 10.4467 27 14.1129 27C17.7796 27 18.2383 26.984 19.6783 26.9184L19.6688 26.7103C21.0864 26.6454 22.0459 26.4217 22.8811 26.0971L22.8811 26.0971C23.7436 25.762 24.4707 25.315 25.199 24.5859L25.1991 24.5858C25.9281 23.8573 26.3741 23.1291 26.7104 22.2663C27.0331 21.4312 27.257 20.4725 27.3236 19.056C27.3881 17.6206 27.4049 17.1652 27.4049 13.5C27.4049 9.83481 27.3881 9.37827 27.3236 7.94285C27.257 6.52573 27.0331 5.56734 26.7104 4.73255M3.02634 24.5858L19.6669 0.289681C21.0844 0.354596 22.0433 0.578285 22.8804 0.902982L22.8804 0.902999C23.744 1.23775 24.4699 1.68364 25.1991 2.41278L25.1991 2.41284C25.9281 3.14126 26.3741 3.86945 26.7104 4.73255M3.02634 24.5858C2.29761 23.8573 1.85163 23.1292 1.51623 22.2662C1.19185 21.4315 0.96815 20.4731 0.902958 19.0555C0.837924 17.6203 0.821615 17.1651 0.821615 13.5C0.821615 9.83487 0.838485 9.37799 0.902686 7.94259L3.02634 24.5858ZM26.7104 4.73255C26.7103 4.73239 26.7103 4.73223 26.7102 4.73207L26.9045 4.65694M26.7104 4.73255C26.7104 4.73255 26.7104 4.73256 26.7104 4.73257L26.9045 4.65694M26.9045 4.65694C27.2364 5.51531 27.4642 6.49631 27.5317 7.9335M26.9045 4.65694L27.5317 7.9335M27.5317 7.9335C27.5964 9.3735 27.6133 9.83362 27.6133 13.5C27.6133 17.1664 27.5964 17.6254 27.5317 19.0654V7.9335ZM19.5792 2.30232L19.5792 2.30232C20.9185 2.36356 21.6551 2.58833 22.1517 2.78114L22.1517 2.78114C22.8084 3.0362 23.2821 3.34458 23.775 3.83776M19.5792 2.30232L23.6276 23.0071L23.7749 23.1545C23.7749 23.1544 23.7749 23.1544 23.775 23.1544C24.268 22.6617 24.577 22.1886 24.8321 21.5317C25.0249 21.0357 25.2497 20.299 25.3109 18.9599L25.3109 18.9598C25.3758 17.5319 25.3899 17.1007 25.3899 13.4969C25.3899 9.89316 25.3758 9.46192 25.3109 8.03401C25.25 6.69471 25.0249 5.95806 24.8321 5.46204L24.832 5.46195C24.5765 4.80549 24.2682 4.33096 23.775 3.83776M19.5792 2.30232C18.1509 2.23741 17.7199 2.22448 14.1145 2.22448C13.959 2.22448 13.8092 2.22441 13.665 2.22435C13.4708 2.22426 13.2866 2.22418 13.1118 2.22427V2.22087L12.9032 2.2211C10.3851 2.22392 9.8993 2.24083 8.64997 2.29725L8.64981 2.29726C7.31072 2.35878 6.57372 2.58294 6.07685 2.77675C5.42042 3.0323 4.94592 3.34059 4.45273 3.83378C3.95958 4.32692 3.65064 4.80147 3.39558 5.45817L3.39558 5.45818C3.20276 5.95474 2.97799 6.69134 2.91675 8.03058L2.91675 8.03063C2.85184 9.45861 2.83891 9.88767 2.83891 13.4935C2.83891 17.0994 2.85184 17.5307 2.91675 18.9587L3.12487 18.9492L2.91675 18.9587C2.97771 20.298 3.20277 21.0346 3.39561 21.5306L3.39563 21.5307C3.65125 22.1876 3.9596 22.661 4.45273 23.1541C4.94595 23.6473 5.42053 23.9557 6.07713 24.2107L6.07719 24.2107C6.57398 24.4035 7.31055 24.6283 8.64976 24.6901L8.64991 24.6901C10.0778 24.755 10.5088 24.7691 14.1145 24.7691C17.72 24.7691 18.1513 24.755 19.5792 24.6901L19.5792 24.6901M19.5792 2.30232L19.5792 24.6901M23.775 3.83776L23.6276 3.98503L23.775 3.83772C23.775 3.83773 23.775 3.83775 23.775 3.83776ZM19.5792 24.6901C20.918 24.6289 21.6553 24.4048 22.1516 24.211L19.5792 24.6901ZM8.55752 0.289678C9.99223 0.224388 10.4489 0.208346 14.1103 0.208333L8.55752 0.289678ZM14.1145 0.208333C17.7771 0.208346 18.2321 0.224388 19.6668 0.289678L14.1145 0.208333ZM21.3208 4.88271H21.361C22.1218 4.90401 22.7325 5.52794 22.7325 6.29381C22.7325 7.07313 22.1001 7.70548 21.3208 7.70548C20.5415 7.70548 19.9091 7.07313 19.9091 6.29381C19.9091 5.51434 20.5414 4.88271 21.3208 4.88271ZM7.39 13.5C7.39 9.7865 10.4008 6.77567 14.1143 6.77552H14.1145C17.828 6.77567 20.838 9.78646 20.838 13.5C20.838 17.2136 17.8282 20.2231 14.1145 20.2231C10.4009 20.2231 7.39 17.2135 7.39 13.5ZM18.8229 13.5C18.8229 10.8995 16.7147 8.79167 14.1145 8.79167C11.5141 8.79167 9.40617 10.8995 9.40617 13.5C9.40617 16.1002 11.514 18.2083 14.1145 18.2083C16.7148 18.2083 18.8229 16.1002 18.8229 13.5Z" fill="url(#paint0_radial)"/>
<path d="M5.34691 0.902916L5.34681 0.902954C4.48385 1.23807 3.75569 1.68404 3.02724 2.41276L3.02716 2.41284C2.29817 3.14127 1.85215 3.86947 1.51587 4.73231L1.51587 4.73232C1.19044 5.56719 0.96649 6.5257 0.902688 7.94253L5.34691 0.902916ZM5.34691 0.902916C6.18159 0.57829 7.13993 0.354597 8.55746 0.289681L5.34691 0.902916ZM3.02634 24.5858L3.02645 24.5859C3.7547 25.315 4.48289 25.762 5.34516 26.0971L5.34518 26.0971C6.18045 26.4217 7.13909 26.6454 8.55633 26.7103C8.55635 26.7103 8.55638 26.7103 8.5564 26.7103L8.54686 26.9184C9.98688 26.984 10.4467 27 14.1129 27C17.7796 27 18.2383 26.984 19.6783 26.9184L19.6688 26.7103C21.0864 26.6454 22.0459 26.4217 22.8811 26.0971L22.8811 26.0971C23.7436 25.762 24.4707 25.315 25.199 24.5859L25.1991 24.5858C25.9281 23.8573 26.3741 23.1291 26.7104 22.2663C27.0331 21.4312 27.257 20.4725 27.3236 19.056C27.3881 17.6206 27.4049 17.1652 27.4049 13.5C27.4049 9.83481 27.3881 9.37827 27.3236 7.94285C27.257 6.52573 27.0331 5.56734 26.7104 4.73255M3.02634 24.5858L19.6669 0.289681C21.0844 0.354596 22.0433 0.578285 22.8804 0.902982L22.8804 0.902999C23.744 1.23775 24.4699 1.68364 25.1991 2.41278L25.1991 2.41284C25.9281 3.14126 26.3741 3.86945 26.7104 4.73255M3.02634 24.5858C2.29761 23.8573 1.85163 23.1292 1.51623 22.2662C1.19185 21.4315 0.96815 20.4731 0.902958 19.0555C0.837924 17.6203 0.821615 17.1651 0.821615 13.5C0.821615 9.83487 0.838485 9.37799 0.902686 7.94259L3.02634 24.5858ZM26.7104 4.73255C26.7103 4.73239 26.7103 4.73223 26.7102 4.73207L26.9045 4.65694M26.7104 4.73255C26.7104 4.73255 26.7104 4.73256 26.7104 4.73257L26.9045 4.65694M26.9045 4.65694C27.2364 5.51531 27.4642 6.49631 27.5317 7.9335M26.9045 4.65694L27.5317 7.9335M27.5317 7.9335C27.5964 9.3735 27.6133 9.83362 27.6133 13.5C27.6133 17.1664 27.5964 17.6254 27.5317 19.0654V7.9335ZM19.5792 2.30232L19.5792 2.30232C20.9185 2.36356 21.6551 2.58833 22.1517 2.78114L22.1517 2.78114C22.8084 3.0362 23.2821 3.34458 23.775 3.83776M19.5792 2.30232L23.6276 23.0071L23.7749 23.1545C23.7749 23.1544 23.7749 23.1544 23.775 23.1544C24.268 22.6617 24.577 22.1886 24.8321 21.5317C25.0249 21.0357 25.2497 20.299 25.3109 18.9599L25.3109 18.9598C25.3758 17.5319 25.3899 17.1007 25.3899 13.4969C25.3899 9.89316 25.3758 9.46192 25.3109 8.03401C25.25 6.69471 25.0249 5.95806 24.8321 5.46204L24.832 5.46195C24.5765 4.80549 24.2682 4.33096 23.775 3.83776M19.5792 2.30232C18.1509 2.23741 17.7199 2.22448 14.1145 2.22448C13.959 2.22448 13.8092 2.22441 13.665 2.22435C13.4708 2.22426 13.2866 2.22418 13.1118 2.22427V2.22087L12.9032 2.2211C10.3851 2.22392 9.8993 2.24083 8.64997 2.29725L8.64981 2.29726C7.31072 2.35878 6.57372 2.58294 6.07685 2.77675C5.42042 3.0323 4.94592 3.34059 4.45273 3.83378C3.95958 4.32692 3.65064 4.80147 3.39558 5.45817L3.39558 5.45818C3.20276 5.95474 2.97799 6.69134 2.91675 8.03058L2.91675 8.03063C2.85184 9.45861 2.83891 9.88767 2.83891 13.4935C2.83891 17.0994 2.85184 17.5307 2.91675 18.9587L3.12487 18.9492L2.91675 18.9587C2.97771 20.298 3.20277 21.0346 3.39561 21.5306L3.39563 21.5307C3.65125 22.1876 3.9596 22.661 4.45273 23.1541C4.94595 23.6473 5.42053 23.9557 6.07713 24.2107L6.07719 24.2107C6.57398 24.4035 7.31055 24.6283 8.64976 24.6901L8.64991 24.6901C10.0778 24.755 10.5088 24.7691 14.1145 24.7691C17.72 24.7691 18.1513 24.755 19.5792 24.6901L19.5792 24.6901M19.5792 2.30232L19.5792 24.6901M23.775 3.83776L23.6276 3.98503L23.775 3.83772C23.775 3.83773 23.775 3.83775 23.775 3.83776ZM19.5792 24.6901C20.918 24.6289 21.6553 24.4048 22.1516 24.211L19.5792 24.6901ZM8.55752 0.289678C9.99223 0.224388 10.4489 0.208346 14.1103 0.208333L8.55752 0.289678ZM14.1145 0.208333C17.7771 0.208346 18.2321 0.224388 19.6668 0.289678L14.1145 0.208333ZM21.3208 4.88271H21.361C22.1218 4.90401 22.7325 5.52794 22.7325 6.29381C22.7325 7.07313 22.1001 7.70548 21.3208 7.70548C20.5415 7.70548 19.9091 7.07313 19.9091 6.29381C19.9091 5.51434 20.5414 4.88271 21.3208 4.88271ZM7.39 13.5C7.39 9.7865 10.4008 6.77567 14.1143 6.77552H14.1145C17.828 6.77567 20.838 9.78646 20.838 13.5C20.838 17.2136 17.8282 20.2231 14.1145 20.2231C10.4009 20.2231 7.39 17.2135 7.39 13.5ZM18.8229 13.5C18.8229 10.8995 16.7147 8.79167 14.1145 8.79167C11.5141 8.79167 9.40617 10.8995 9.40617 13.5C9.40617 16.1002 11.514 18.2083 14.1145 18.2083C16.7148 18.2083 18.8229 16.1002 18.8229 13.5Z" fill="url(#paint1_radial)"/>
<path d="M5.34691 0.902916L5.34681 0.902954C4.48385 1.23807 3.75569 1.68404 3.02724 2.41276L3.02716 2.41284C2.29817 3.14127 1.85215 3.86947 1.51587 4.73231L1.51587 4.73232C1.19044 5.56719 0.96649 6.5257 0.902688 7.94253L5.34691 0.902916ZM5.34691 0.902916C6.18159 0.57829 7.13993 0.354597 8.55746 0.289681L5.34691 0.902916ZM3.02634 24.5858L3.02645 24.5859C3.7547 25.315 4.48289 25.762 5.34516 26.0971L5.34518 26.0971C6.18045 26.4217 7.13909 26.6454 8.55633 26.7103C8.55635 26.7103 8.55638 26.7103 8.5564 26.7103L8.54686 26.9184C9.98688 26.984 10.4467 27 14.1129 27C17.7796 27 18.2383 26.984 19.6783 26.9184L19.6688 26.7103C21.0864 26.6454 22.0459 26.4217 22.8811 26.0971L22.8811 26.0971C23.7436 25.762 24.4707 25.315 25.199 24.5859L25.1991 24.5858C25.9281 23.8573 26.3741 23.1291 26.7104 22.2663C27.0331 21.4312 27.257 20.4725 27.3236 19.056C27.3881 17.6206 27.4049 17.1652 27.4049 13.5C27.4049 9.83481 27.3881 9.37827 27.3236 7.94285C27.257 6.52573 27.0331 5.56734 26.7104 4.73255M3.02634 24.5858L19.6669 0.289681C21.0844 0.354596 22.0433 0.578285 22.8804 0.902982L22.8804 0.902999C23.744 1.23775 24.4699 1.68364 25.1991 2.41278L25.1991 2.41284C25.9281 3.14126 26.3741 3.86945 26.7104 4.73255M3.02634 24.5858C2.29761 23.8573 1.85163 23.1292 1.51623 22.2662C1.19185 21.4315 0.96815 20.4731 0.902958 19.0555C0.837924 17.6203 0.821615 17.1651 0.821615 13.5C0.821615 9.83487 0.838485 9.37799 0.902686 7.94259L3.02634 24.5858ZM26.7104 4.73255C26.7103 4.73239 26.7103 4.73223 26.7102 4.73207L26.9045 4.65694M26.7104 4.73255C26.7104 4.73255 26.7104 4.73256 26.7104 4.73257L26.9045 4.65694M26.9045 4.65694C27.2364 5.51531 27.4642 6.49631 27.5317 7.9335M26.9045 4.65694L27.5317 7.9335M27.5317 7.9335C27.5964 9.3735 27.6133 9.83362 27.6133 13.5C27.6133 17.1664 27.5964 17.6254 27.5317 19.0654V7.9335ZM19.5792 2.30232L19.5792 2.30232C20.9185 2.36356 21.6551 2.58833 22.1517 2.78114L22.1517 2.78114C22.8084 3.0362 23.2821 3.34458 23.775 3.83776M19.5792 2.30232L23.6276 23.0071L23.7749 23.1545C23.7749 23.1544 23.7749 23.1544 23.775 23.1544C24.268 22.6617 24.577 22.1886 24.8321 21.5317C25.0249 21.0357 25.2497 20.299 25.3109 18.9599L25.3109 18.9598C25.3758 17.5319 25.3899 17.1007 25.3899 13.4969C25.3899 9.89316 25.3758 9.46192 25.3109 8.03401C25.25 6.69471 25.0249 5.95806 24.8321 5.46204L24.832 5.46195C24.5765 4.80549 24.2682 4.33096 23.775 3.83776M19.5792 2.30232C18.1509 2.23741 17.7199 2.22448 14.1145 2.22448C13.959 2.22448 13.8092 2.22441 13.665 2.22435C13.4708 2.22426 13.2866 2.22418 13.1118 2.22427V2.22087L12.9032 2.2211C10.3851 2.22392 9.8993 2.24083 8.64997 2.29725L8.64981 2.29726C7.31072 2.35878 6.57372 2.58294 6.07685 2.77675C5.42042 3.0323 4.94592 3.34059 4.45273 3.83378C3.95958 4.32692 3.65064 4.80147 3.39558 5.45817L3.39558 5.45818C3.20276 5.95474 2.97799 6.69134 2.91675 8.03058L2.91675 8.03063C2.85184 9.45861 2.83891 9.88767 2.83891 13.4935C2.83891 17.0994 2.85184 17.5307 2.91675 18.9587L3.12487 18.9492L2.91675 18.9587C2.97771 20.298 3.20277 21.0346 3.39561 21.5306L3.39563 21.5307C3.65125 22.1876 3.9596 22.661 4.45273 23.1541C4.94595 23.6473 5.42053 23.9557 6.07713 24.2107L6.07719 24.2107C6.57398 24.4035 7.31055 24.6283 8.64976 24.6901L8.64991 24.6901C10.0778 24.755 10.5088 24.7691 14.1145 24.7691C17.72 24.7691 18.1513 24.755 19.5792 24.6901L19.5792 24.6901M19.5792 2.30232L19.5792 24.6901M23.775 3.83776L23.6276 3.98503L23.775 3.83772C23.775 3.83773 23.775 3.83775 23.775 3.83776ZM19.5792 24.6901C20.918 24.6289 21.6553 24.4048 22.1516 24.211L19.5792 24.6901ZM8.55752 0.289678C9.99223 0.224388 10.4489 0.208346 14.1103 0.208333L8.55752 0.289678ZM14.1145 0.208333C17.7771 0.208346 18.2321 0.224388 19.6668 0.289678L14.1145 0.208333ZM21.3208 4.88271H21.361C22.1218 4.90401 22.7325 5.52794 22.7325 6.29381C22.7325 7.07313 22.1001 7.70548 21.3208 7.70548C20.5415 7.70548 19.9091 7.07313 19.9091 6.29381C19.9091 5.51434 20.5414 4.88271 21.3208 4.88271ZM7.39 13.5C7.39 9.7865 10.4008 6.77567 14.1143 6.77552H14.1145C17.828 6.77567 20.838 9.78646 20.838 13.5C20.838 17.2136 17.8282 20.2231 14.1145 20.2231C10.4009 20.2231 7.39 17.2135 7.39 13.5ZM18.8229 13.5C18.8229 10.8995 16.7147 8.79167 14.1145 8.79167C11.5141 8.79167 9.40617 10.8995 9.40617 13.5C9.40617 16.1002 11.514 18.2083 14.1145 18.2083C16.7148 18.2083 18.8229 16.1002 18.8229 13.5Z" stroke="#E0E0E0" stroke-width="0.416667"/>
<defs>
<radialGradient id="paint0_radial" cx="0" cy="0" r="1" gradientUnits="userSpaceOnUse" gradientTransform="translate(7.78519 29.0796) rotate(-90) scale(26.759 24.888)">
<stop stop-color="#FFDD55"/>
<stop offset="0.1" stop-color="#FFDD55"/>
<stop offset="0.5" stop-color="#FF543E"/>
<stop offset="1" stop-color="#C837AB"/>
</radialGradient>
<radialGradient id="paint1_radial" cx="0" cy="0" r="1" gradientUnits="userSpaceOnUse" gradientTransform="translate(-3.90936 1.94503) rotate(78.6806) scale(11.9614 49.3053)">
<stop stop-color="#3771C8"/>
<stop offset="0.128" stop-color="#3771C8"/>
<stop offset="1" stop-color="#6600FF" stop-opacity="0"/>
</radialGradient>
</defs>
</svg>
