<svg width="31" height="18" viewBox="0 0 31 18" fill="none" xmlns="http://www.w3.org/2000/svg">
    <path d="M29.8742 1.1548L29.8717 1.16298L29.8699 1.17133C29.7731 1.61971 29.4597 2.31235 29.0257 3.11828C28.5957 3.91697 28.0598 4.80452 27.5352 5.63452C27.0109 6.46406 26.4994 7.23374 26.1189 7.79618C25.9287 8.07734 25.7713 8.30656 25.6615 8.46541C25.6066 8.54484 25.5636 8.60666 25.5344 8.64857L25.5011 8.69623L25.4926 8.70831L25.4905 8.71133L25.49 8.71206L25.4899 8.71224L25.674 8.84168L25.4895 8.71206L25.4826 8.72327C25.3151 8.99394 25.1592 9.2517 25.1367 9.53524C25.1129 9.83586 25.2381 10.119 25.4929 10.4508C25.677 10.7096 26.0517 11.0803 26.454 11.4784L26.4893 11.5133C26.9168 11.9364 27.3871 12.4031 27.7616 12.8503L27.7615 12.8503L27.7652 12.8544C28.4686 13.654 29.0814 14.3865 29.5543 15.033C30.029 15.6821 30.35 16.2277 30.487 16.6569C30.61 17.084 30.5481 17.3455 30.4161 17.5003C30.2775 17.6628 30.0062 17.7749 29.5663 17.7749H26.2843C26.0051 17.7749 25.784 17.7195 25.5737 17.6083C25.3585 17.4945 25.1447 17.3171 24.8876 17.0566C24.6791 16.8454 24.4512 16.5893 24.176 16.28C24.1107 16.2066 24.0427 16.1302 23.9716 16.0506C23.6036 15.6386 23.1605 15.1508 22.6003 14.5849L22.6004 14.5849L22.5974 14.582C20.6465 12.6814 19.755 12.3753 19.1719 12.3753C18.8372 12.3753 18.5219 12.4184 18.319 12.6731C18.2222 12.7947 18.1665 12.946 18.1338 13.1174C18.1011 13.2886 18.0886 13.4942 18.0886 13.7368V16.7104C18.0886 17.0994 18.026 17.3201 17.7976 17.4748C17.5345 17.6531 17.0122 17.7749 15.9694 17.7749C12.5829 17.7749 8.82487 15.6937 6.14442 11.8052L6.14443 11.8052L6.14296 11.8031C4.11867 8.93646 2.83166 6.42213 2.05142 4.51894C1.66124 3.56722 1.39819 2.76929 1.23303 2.15746C1.06613 1.53922 1.00338 1.12615 1.00338 0.937752C1.00338 0.714471 1.04704 0.550604 1.15258 0.439365C1.25681 0.329511 1.4656 0.225063 1.90359 0.225063H5.1856C5.57003 0.225063 5.79559 0.308962 5.96333 0.465005C6.14278 0.631946 6.28586 0.907593 6.44149 1.36178C7.24947 3.73955 8.3347 5.9684 9.36058 7.60623C9.87312 8.42451 10.3748 9.10159 10.8239 9.57712C11.0482 9.81464 11.2646 10.0074 11.4674 10.1422C11.666 10.2743 11.8748 10.3665 12.0787 10.3665C12.1976 10.3665 12.3246 10.3533 12.4432 10.2992C12.568 10.2423 12.6657 10.1485 12.7368 10.0188C12.8676 9.78038 12.9124 9.40999 12.9124 8.87682V3.99396H12.9127L12.9121 3.98178C12.8486 2.81041 12.5056 2.1611 12.1716 1.70224C12.095 1.59701 12.0195 1.50252 11.9519 1.41793L11.9396 1.40263C11.8675 1.31237 11.8066 1.23548 11.7557 1.16107C11.6565 1.01594 11.6084 0.89903 11.6084 0.762151C11.6084 0.514734 11.8222 0.225063 12.2185 0.225063H17.3759C17.6832 0.225063 17.8351 0.306158 17.9246 0.427127C18.0271 0.565572 18.0885 0.807687 18.0885 1.21884V7.78783C18.0885 8.52788 18.4195 8.96131 18.8242 8.96131C19.3502 8.96131 19.7624 8.63529 20.5141 7.87587L20.5143 7.87612L20.5226 7.86676C21.7225 6.51191 22.7407 4.79845 23.4568 3.4309C23.8156 2.74577 24.1 2.14464 24.2948 1.71452C24.3922 1.49941 24.4673 1.32696 24.5181 1.20801C24.5436 1.14854 24.5629 1.10243 24.576 1.07105L24.5908 1.03519L24.5946 1.02586L24.5947 1.02566C24.5949 1.02517 24.5951 1.02468 24.5953 1.0242C24.6902 0.801024 24.8183 0.604623 25.0033 0.463353C25.1858 0.324071 25.441 0.225063 25.8154 0.225063H29.0974C29.5645 0.225063 29.7712 0.347132 29.859 0.474049C29.9505 0.606294 29.9717 0.826102 29.8742 1.1548Z"
          fill="#5181B8" stroke="#E0E0E0" stroke-width="0.450126"/>
</svg>
