<svg width="117" height="28" viewBox="0 0 117 28" fill="none" xmlns="http://www.w3.org/2000/svg">
<g clip-path="url(#clip0)">
<path d="M61.8113 6.83203C60.9061 6.83203 60.143 6.51532 59.5395 5.89188C58.941 5.2859 58.6068 4.45049 58.6218 3.59763C58.6218 2.68741 58.931 1.91684 59.5395 1.30587C60.1405 0.68243 60.9036 0.365723 61.8088 0.365723C62.7041 0.365723 63.4672 0.68243 64.0807 1.30587C64.6891 1.93679 64.9984 2.70736 64.9984 3.59763C64.9884 4.51034 64.6792 5.28091 64.0807 5.88939C63.4797 6.51782 62.7166 6.83203 61.8113 6.83203ZM34.8762 6.83203C33.9909 6.83203 33.2229 6.52031 32.5944 5.90435C31.971 5.29089 31.6543 4.51533 31.6543 3.60012C31.6543 2.68491 31.971 1.90936 32.5944 1.29589C33.2104 0.679936 33.9785 0.368217 34.8762 0.368217C35.3151 0.368217 35.7416 0.455498 36.1505 0.632555C36.552 0.804624 36.8787 1.03904 37.1206 1.32582L37.1805 1.39814L36.5047 2.06148L36.4348 1.97918C36.0533 1.52532 35.5421 1.30337 34.8663 1.30337C34.2628 1.30337 33.7366 1.51784 33.3027 1.94178C32.8663 2.36821 32.6443 2.92681 32.6443 3.60262C32.6443 4.27842 32.8663 4.83703 33.3027 5.26346C33.7366 5.6874 34.2628 5.90186 34.8663 5.90186C35.5096 5.90186 36.0508 5.6874 36.4722 5.26346C36.7216 5.01408 36.8762 4.66496 36.9311 4.22356H34.764V3.2909H37.8613L37.8737 3.37568C37.8962 3.53279 37.9186 3.69489 37.9186 3.84451C37.9186 4.70486 37.6593 5.40061 37.1456 5.91433C36.562 6.5228 35.7989 6.83203 34.8762 6.83203ZM70.6891 6.69986H69.734L66.8088 2.01908L66.8338 2.86197V6.69737H65.8787V0.500386H66.9684L66.9984 0.547767L69.749 4.95673L69.724 4.11633V0.500386H70.6891V6.69986ZM54.6343 6.69986H53.6667V1.43305H51.9884V0.500386H56.3101V1.43305H54.6318V6.69986H54.6343ZM51.2004 6.69986H50.2353V0.500386H51.2004V6.69986ZM45.7765 6.69986H44.8114V1.43305H43.1331V0.500386H47.4548V1.43305H45.7765V6.69986ZM42.5221 6.68989H38.8214V0.500386H42.5221V1.43305H39.7889V3.13379H42.2553V4.05648H39.7889V5.75722H42.5221V6.68989ZM60.2477 5.25099C60.6792 5.68241 61.2029 5.89936 61.8113 5.89936C62.4373 5.89936 62.9485 5.6874 63.3749 5.25099C63.7989 4.82705 64.0133 4.27094 64.0133 3.60012C64.0133 2.9293 63.7989 2.3707 63.3774 1.94926C62.946 1.51784 62.4198 1.30088 61.8138 1.30088C61.1879 1.30088 60.6767 1.51285 60.2527 1.94926C59.8288 2.3732 59.6143 2.9293 59.6143 3.60012C59.6143 4.27094 59.8263 4.82954 60.2477 5.25099Z" fill="white"/>
<path fill-rule="evenodd" clip-rule="evenodd" d="M58.5322 15.3555C56.1756 15.3555 54.2654 17.1435 54.2654 19.6098C54.2654 22.0537 56.188 23.8642 58.5322 23.8642C60.8888 23.8642 62.799 22.0637 62.799 19.6098C62.799 17.1435 60.8888 15.3555 58.5322 15.3555ZM58.5322 22.1784C57.2429 22.1784 56.1332 21.1111 56.1332 19.5999C56.1332 18.0662 57.2454 17.0213 58.5322 17.0213C59.8215 17.0213 60.9312 18.0662 60.9312 19.5999C60.9337 21.1211 59.8215 22.1784 58.5322 22.1784ZM49.223 15.3555C46.8663 15.3555 44.9561 17.1435 44.9561 19.6098C44.9561 22.0537 46.8788 23.8642 49.223 23.8642C51.5796 23.8642 53.4898 22.0637 53.4898 19.6098C53.4898 17.1435 51.5771 15.3555 49.223 15.3555ZM49.223 22.1784C47.9337 22.1784 46.824 21.1111 46.824 19.5999C46.824 18.0662 47.9362 17.0213 49.223 17.0213C50.5122 17.0213 51.622 18.0662 51.622 19.5999C51.622 21.1211 50.5122 22.1784 49.223 22.1784ZM38.1456 16.6547V18.4552H42.4673C42.3352 19.4652 42.001 20.2108 41.4898 20.7221C40.8564 21.3555 39.8788 22.0437 38.1556 22.0437C35.4998 22.0437 33.4225 19.8991 33.4225 17.2433C33.4225 14.5874 35.4998 12.4428 38.1556 12.4428C39.5895 12.4428 40.6344 13.0089 41.41 13.7321L42.6868 12.4553C41.6095 11.4228 40.1756 10.6323 38.1656 10.6323C34.5222 10.6323 31.4648 13.5999 31.4648 17.2333C31.4648 20.8767 34.5197 23.8343 38.1656 23.8343C40.1332 23.8343 41.6095 23.1909 42.7766 21.9789C43.9661 20.7894 44.3427 19.1111 44.3427 17.757C44.3427 17.3355 44.3102 16.9565 44.2429 16.6348H38.1432C38.1456 16.6323 38.1456 16.6547 38.1456 16.6547ZM83.4549 18.0562C83.0983 17.1011 82.021 15.3455 79.8115 15.3455C77.622 15.3455 75.8015 17.0687 75.8015 19.5999C75.8015 21.9889 77.602 23.8542 80.0235 23.8542C81.9686 23.8542 83.1008 22.6647 83.5671 21.9664L82.1232 20.9989C81.6444 21.7096 80.9786 22.1759 80.0334 22.1759C79.0783 22.1759 78.41 21.742 77.9661 20.8866L83.6544 18.53C83.6544 18.5325 83.4549 18.0562 83.4549 18.0562ZM77.6544 19.4777C77.6095 17.8343 78.9312 16.9989 79.8763 16.9989C80.622 16.9989 81.2429 17.3655 81.4549 17.8991L77.6544 19.4777ZM73.0334 23.5998H74.9013V11.1011H73.0334V23.5998ZM69.9661 16.3006H69.8988C69.4773 15.7994 68.6768 15.3455 67.6544 15.3455C65.5322 15.3455 63.5771 17.2133 63.5771 19.6123C63.5771 22.0014 65.5222 23.8467 67.6544 23.8467C68.6644 23.8467 69.4773 23.3904 69.8988 22.8792H69.9661V23.4901C69.9661 25.1136 69.0983 25.9889 67.6993 25.9889C66.5546 25.9889 65.8439 25.1659 65.5546 24.4777L63.9312 25.156C64.3975 26.2781 65.6419 27.6672 67.6968 27.6672C69.8863 27.6672 71.7417 26.3779 71.7417 23.2333V15.5999H69.9761V16.3006C69.9786 16.3006 69.9661 16.3006 69.9661 16.3006ZM67.8215 22.1784C66.5322 22.1784 65.4549 21.1011 65.4549 19.6123C65.4549 18.1111 66.5322 17.0238 67.8215 17.0238C69.0983 17.0238 70.0883 18.1236 70.0883 19.6123C70.1008 21.1011 69.1008 22.1784 67.8215 22.1784ZM92.2005 11.1011H87.7342V23.5998H89.602V18.8667H92.203C94.2704 18.8667 96.3028 17.368 96.3028 14.9889C96.3028 12.6099 94.2778 11.1011 92.2005 11.1011ZM92.2554 17.1211H89.5995V12.8318H92.2554C93.6544 12.8318 94.4449 13.9864 94.4449 14.9764C94.4449 15.9565 93.6444 17.1211 92.2554 17.1211ZM103.789 15.3331C102.432 15.3331 101.033 15.934 100.455 17.2433L102.111 17.9315C102.467 17.2433 103.121 17.0089 103.812 17.0089C104.779 17.0089 105.757 17.5874 105.779 18.6198V18.752C105.445 18.5625 104.712 18.2732 103.834 18.2732C102.046 18.2732 100.233 19.2507 100.233 21.0837C100.233 22.7619 101.699 23.8392 103.333 23.8392C104.587 23.8392 105.278 23.2732 105.709 22.6173H105.777V23.5849H107.577V18.7969C107.577 16.5675 105.921 15.3331 103.789 15.3331ZM103.555 22.1784C102.944 22.1784 102.088 21.8792 102.088 21.1111C102.088 20.1435 103.156 19.7769 104.066 19.7769C104.889 19.7769 105.278 19.954 105.767 20.1984C105.632 21.3206 104.684 22.1684 103.555 22.1784ZM114.146 15.5999L112.001 21.0213H111.934L109.712 15.5999H107.702L111.036 23.1784L109.136 27.3904H111.081L116.211 15.5999H114.146ZM97.3327 23.5998H99.2005V11.1011H97.3327V23.5998Z" fill="white"/>
<path fill-rule="evenodd" clip-rule="evenodd" d="M0.8338 1.13374C0.544523 1.44546 0.377441 1.92176 0.377441 2.5452V24.6573C0.377441 25.2808 0.544523 25.7571 0.843775 26.0563L0.921082 26.1237L13.3101 13.7347V13.4579L0.911107 1.06641L0.8338 1.13374Z" fill="url(#paint0_linear)"/>
<path fill-rule="evenodd" clip-rule="evenodd" d="M17.4325 17.8768L13.3003 13.7447V13.4554L17.4325 9.32324L17.5222 9.37811L22.41 12.1561C23.809 12.9442 23.809 14.2459 22.41 15.0439L17.5222 17.822L17.4325 17.8768Z" fill="url(#paint1_linear)"/>
<path fill-rule="evenodd" clip-rule="evenodd" d="M17.5223 17.822L13.3003 13.6001L0.833984 26.0664C1.29034 26.5552 2.05593 26.61 2.91129 26.1337L17.5223 17.822Z" fill="url(#paint2_linear)"/>
<path fill-rule="evenodd" clip-rule="evenodd" d="M17.5223 9.37801L2.91129 1.07879C2.05593 0.590014 1.28785 0.657346 0.833984 1.14612L13.3003 13.5999L17.5223 9.37801Z" fill="url(#paint3_linear)"/>
<path opacity="0.2" fill-rule="evenodd" clip-rule="evenodd" d="M17.4323 17.7319L2.92106 25.9763C2.11059 26.4426 1.38739 26.4102 0.921057 25.9863L0.84375 26.0636L0.921057 26.1309C1.38739 26.5524 2.11059 26.5873 2.92106 26.1209L17.5321 17.8217L17.4323 17.7319Z" fill="black"/>
<path opacity="0.12" fill-rule="evenodd" clip-rule="evenodd" d="M22.4099 14.8993L17.4199 17.7322L17.5097 17.822L22.3975 15.044C23.0982 14.645 23.4424 14.1213 23.4424 13.6001C23.4 14.0789 23.0434 14.5328 22.4099 14.8993Z" fill="black"/>
<path opacity="0.25" fill-rule="evenodd" clip-rule="evenodd" d="M2.91111 1.22339L22.4099 12.3006C23.0433 12.6573 23.3999 13.1236 23.4547 13.5999C23.4547 13.0787 23.1106 12.555 22.4099 12.156L2.91111 1.07875C1.5121 0.278256 0.377441 0.946583 0.377441 2.54508V2.68972C0.377441 1.08873 1.5121 0.43287 2.91111 1.22339Z" fill="white"/>
</g>
<defs>
<linearGradient id="paint0_linear" x1="12.1988" y1="2.30664" x2="-7.64624" y2="7.5944" gradientUnits="userSpaceOnUse">
<stop stop-color="#00A0FF"/>
<stop offset="0.00657" stop-color="#00A1FF"/>
<stop offset="0.2601" stop-color="#00BEFF"/>
<stop offset="0.5122" stop-color="#00D2FF"/>
<stop offset="0.7604" stop-color="#00DFFF"/>
<stop offset="1" stop-color="#00E3FF"/>
</linearGradient>
<linearGradient id="paint1_linear" x1="24.2345" y1="13.6001" x2="0.03755" y2="13.6001" gradientUnits="userSpaceOnUse">
<stop stop-color="#FFE000"/>
<stop offset="0.4087" stop-color="#FFBD00"/>
<stop offset="0.7754" stop-color="#FFA500"/>
<stop offset="1" stop-color="#FF9C00"/>
</linearGradient>
<linearGradient id="paint2_linear" x1="15.2265" y1="15.8974" x2="-0.704889" y2="42.7115" gradientUnits="userSpaceOnUse">
<stop stop-color="#FF3A44"/>
<stop offset="1" stop-color="#C31162"/>
</linearGradient>
<linearGradient id="paint3_linear" x1="-2.30518" y1="-6.22119" x2="4.80247" y2="5.75438" gradientUnits="userSpaceOnUse">
<stop stop-color="#32A071"/>
<stop offset="0.0685" stop-color="#2DA771"/>
<stop offset="0.4762" stop-color="#15CF74"/>
<stop offset="0.8009" stop-color="#06E775"/>
<stop offset="1" stop-color="#00F076"/>
</linearGradient>
<clipPath id="clip0">
<rect width="116.4" height="27.9999" fill="white"/>
</clipPath>
</defs>
</svg>
