<svg width="205" height="24" viewBox="0 0 205 24" fill="none" xmlns="http://www.w3.org/2000/svg">
<path fill-rule="evenodd" clip-rule="evenodd" d="M189.622 14.4799L192.84 7.06432L196.058 14.4799H189.622ZM193.987 0.039362H191.764L180.834 23.9956L181.475 23.9911H185.49L188.004 18.494H197.669L200.183 23.9956H204.808L193.987 0.039362Z" fill="#00AED6"/>
<path fill-rule="evenodd" clip-rule="evenodd" d="M77.2687 19.1349C76.5241 19.6645 75.5488 19.9255 74.3546 19.9255H68.9978V13.8029H73.4318C74.1017 13.8029 74.7716 13.8649 75.414 13.9723C76.0147 14.0631 76.5426 14.2456 76.9867 14.491C77.4017 14.7231 77.7112 15.0166 77.9532 15.4097C78.1754 15.7655 78.2844 16.2519 78.2699 16.8614C78.2553 17.9302 77.9296 18.6863 77.2687 19.1349ZM68.9978 4.11358H73.7993C74.3566 4.11358 74.866 4.18423 75.3283 4.29582C75.7562 4.42562 76.1275 4.59861 76.4332 4.83243C76.7101 5.04439 76.912 5.32167 77.0759 5.6724C77.2377 6.04809 77.3179 6.49555 77.3179 7.03161C77.3179 7.55673 77.2306 8.00251 77.063 8.32605C76.8919 8.65464 76.6626 8.91874 76.353 9.12285C76.0366 9.34406 75.6213 9.50947 75.1445 9.62554C74.6222 9.73516 74.0506 9.7974 73.4318 9.7974H68.9978V4.11358ZM79.6528 11.4443C80.0717 11.077 80.4213 10.6531 80.7014 10.1717C81.2458 9.21621 81.5185 8.1298 81.5185 6.93433C81.5185 5.7554 81.3238 4.72057 80.9418 3.85088C80.5487 2.96269 79.9937 2.21973 79.2853 1.65451C78.5973 1.09182 77.7783 0.683049 76.8516 0.413899C75.9617 0.168581 74.9806 0.0309219 73.9504 0.0309219H64.7676V23.9956H74.8733C75.9527 23.9956 76.97 23.856 77.8766 23.5406C78.8195 23.2395 79.6421 22.7783 80.3156 22.1671C80.9945 21.5598 81.535 20.7997 81.9193 19.9247C82.3049 19.041 82.4999 18.0202 82.4999 16.8738C82.4999 15.3559 82.0994 14.0474 81.3222 12.9776C80.8706 12.3627 80.3156 11.8424 79.6528 11.4443Z" fill="#00AED6"/>
<path fill-rule="evenodd" clip-rule="evenodd" d="M109.748 17.4344C109.546 17.9337 109.267 18.3697 108.9 18.7375C108.529 19.0885 108.077 19.386 107.575 19.5924C107.065 19.813 106.492 19.9221 105.871 19.9221C104.899 19.9341 103.93 19.9394 102.944 19.9341C102.233 19.9221 101.513 19.9221 100.813 19.9221V11.7399H105.886C106.521 11.7399 107.1 11.8347 107.608 12.0225C108.11 12.2185 108.543 12.4868 108.915 12.8493C109.284 13.1829 109.546 13.5979 109.75 14.0846C109.95 14.5727 110.052 15.1393 110.052 15.7351C110.052 16.3612 109.95 16.9261 109.748 17.4344ZM111.903 9.96117C111.177 9.21652 110.293 8.65243 109.257 8.25179C108.241 7.85956 107.105 7.64985 105.886 7.64985H100.813V0.0379601H96.6628V23.9959H105.886C107.109 23.9959 108.252 23.7834 109.271 23.3536C110.303 22.9434 111.194 22.3449 111.925 21.5996C112.653 20.8522 113.225 19.9651 113.607 18.9558C114 17.9619 114.199 16.8713 114.199 15.7344C114.199 14.5796 113.988 13.5064 113.592 12.5245C113.196 11.5405 112.631 10.6803 111.903 9.96117Z" fill="#00AED6"/>
<path fill-rule="evenodd" clip-rule="evenodd" d="M131.183 13.6679H140.736V9.62109H131.183V4.08249H141.069V0.0379601H126.949V23.9959H141.413V19.8238H131.183V13.6679Z" fill="#00AED6"/>
<path fill-rule="evenodd" clip-rule="evenodd" d="M13.2802 10.2495C13.0693 10.7898 12.7705 11.2555 12.4011 11.6284C12.0336 12.0181 11.593 12.308 11.0852 12.5219C10.5793 12.7355 10.0151 12.8435 9.40321 12.8435H4.17019V4.12133C4.93456 4.12133 5.68629 4.11207 6.42731 4.09189C7.43585 4.08796 8.41692 4.08796 9.40321 4.12133C10.033 4.12133 10.601 4.21777 11.1143 4.4373C11.6241 4.66243 12.0682 4.96578 12.4412 5.3496C12.8125 5.72136 13.0858 6.15957 13.2912 6.69114C13.4934 7.20757 13.5988 7.81709 13.5988 8.4622C13.5988 9.11041 13.4934 9.70506 13.2802 10.2495ZM15.4859 2.50951C14.7542 1.74467 13.8588 1.12142 12.8286 0.692186C11.8074 0.266593 10.6517 0.0198727 9.41739 0.0198727H0V23.9991H4.20251V16.9463H9.40283C10.6404 16.9463 11.7781 16.7287 12.7976 16.2967C13.8242 15.8593 14.7215 15.2574 15.4461 14.5122C16.1758 13.7487 16.751 12.846 17.1404 11.8137C17.5409 10.8055 17.7375 9.68515 17.7375 8.5292C17.7375 7.37551 17.5447 6.26835 17.1588 5.2296C16.7801 4.18132 16.2085 3.27294 15.4859 2.50951Z" fill="#00AED6"/>
<path fill-rule="evenodd" clip-rule="evenodd" d="M169.038 10.2495C168.84 10.7898 168.535 11.2555 168.171 11.6284C167.8 12.0181 167.365 12.308 166.855 12.5219C166.346 12.7355 165.778 12.8435 165.17 12.8435H159.933V4.12132C160.692 4.12132 161.453 4.11207 162.195 4.09188C163.195 4.08796 164.176 4.08796 165.17 4.12132C165.794 4.12132 166.366 4.21777 166.877 4.43729C167.383 4.66242 167.833 4.96578 168.204 5.3496C168.568 5.72136 168.852 6.15957 169.051 6.69114C169.262 7.20757 169.365 7.81708 169.365 8.4622C169.365 9.1104 169.252 9.70506 169.038 10.2495ZM171.245 2.50651C170.518 1.74168 169.626 1.11843 168.594 0.689191C167.567 0.263599 166.415 0.0168781 165.18 0.0168781H155.77V23.9961H159.968V16.9433H165.17C166.4 16.9433 167.537 16.7257 168.561 16.2937C169.585 15.8563 170.474 15.2544 171.211 14.5092C171.941 13.7457 172.509 12.843 172.911 11.8107C173.302 10.8025 173.51 9.68215 173.51 8.52621C173.51 7.37251 173.312 6.26535 172.929 5.2266C172.538 4.17832 171.977 3.26994 171.245 2.50651Z" fill="#00AED6"/>
<path fill-rule="evenodd" clip-rule="evenodd" d="M48.4429 0V0.786422C48.4429 5.0317 47.0083 7.6475 45.0879 9.56687C43.7394 10.9031 42.1574 11.886 40.6468 12.8169C38.2386 14.3014 35.9216 15.7453 34.7038 18.497C34.1506 19.7547 33.8301 21.2979 33.8301 23.2357V23.9964H34.7038V23.0692C34.7623 17.5152 37.5651 15.7859 41.1019 13.5988C42.4342 12.7779 43.8251 11.9006 45.0879 10.7991V23.9964H49.3217V0H48.4429Z" fill="#00AED6"/>
<path fill-rule="evenodd" clip-rule="evenodd" d="M39.3758 10.6039C41.7675 9.1267 43.9318 7.79441 45.0875 5.2986C45.6409 4.10734 45.9615 2.64215 45.9615 0.786422V0H45.0875V0.786422C45.0875 6.02783 42.5046 7.63123 38.9336 9.82705C37.5155 10.7004 36.0305 11.6312 34.7033 12.8244V0.0114949H30.4659V23.9964H31.3454V23.2357C31.3454 18.8015 32.7777 16.0553 34.7033 14.0757C36.1178 12.6329 37.7869 11.5908 39.3758 10.6039Z" fill="#00AED6"/>
<path fill-rule="evenodd" clip-rule="evenodd" d="M40.2392 12.0994C41.9665 11.0323 43.7136 9.94788 45.0879 8.38345C46.6024 6.64183 47.64 4.32658 47.64 0.786422V0H46.7664V0.786422C46.7664 3.51016 46.1146 5.4458 45.0879 6.94014C43.763 8.86652 41.8044 10.0746 39.7951 11.3231C37.973 12.4417 36.129 13.5879 34.7038 15.2827C33.1877 17.0885 32.1555 19.5209 32.1555 23.2357V23.9964H33.0256V23.2357C33.0256 20.3654 33.6735 18.3355 34.7038 16.7672C36.0781 14.6841 38.1241 13.4098 40.2392 12.0994Z" fill="#00AED6"/>
</svg>
