<svg width="28" height="19" viewBox="0 0 28 19" fill="none" xmlns="http://www.w3.org/2000/svg">
<path d="M27.0605 3.03669L27.0608 3.03761C27.3439 4.07201 27.483 5.68582 27.5501 7.05817C27.5835 7.74077 27.5988 8.35758 27.6057 8.80374C27.6092 9.02677 27.6106 9.20703 27.6111 9.33139C27.6114 9.39357 27.6114 9.44176 27.6114 9.47434L27.6113 9.51128L27.6113 9.52057L27.6113 9.52285L27.6113 9.5234L27.6113 9.52352L27.8411 9.5247L27.6113 9.52354V9.5247V9.52485V9.52539L27.6113 9.52767L27.6113 9.53693L27.6112 9.5737C27.611 9.60613 27.6108 9.65411 27.6102 9.716C27.6091 9.83979 27.607 10.0192 27.6026 10.2413C27.5939 10.6854 27.5765 11.2996 27.5418 11.9796C27.4719 13.346 27.3328 14.9552 27.0603 15.9911C26.7686 17.0735 25.9146 17.9275 24.8321 18.2192C24.3248 18.3526 23.4165 18.4564 22.3206 18.5351C21.2305 18.6133 19.9736 18.6656 18.7809 18.7004C17.5886 18.7353 16.4622 18.7527 15.6339 18.7614C15.2197 18.7658 14.8802 18.768 14.6442 18.7691C14.5263 18.7696 14.4342 18.7699 14.3716 18.77L14.3004 18.7701L14.2823 18.7702L14.2777 18.7702H14.2766H14.2763L14.2763 18.9999L14.2762 18.7702H14.2759H14.2748L14.2702 18.7702L14.2521 18.7701L14.1811 18.77C14.1188 18.7699 14.0269 18.7696 13.9092 18.769C13.6739 18.7679 13.3351 18.7656 12.9219 18.7611C12.0953 18.752 10.9711 18.7339 9.78026 18.6976C8.58903 18.6614 7.33296 18.607 6.24202 18.5257C5.14472 18.4439 4.23375 18.3359 3.72134 18.1971L3.72101 18.197C2.63814 17.9055 1.78374 17.0512 1.49208 15.9684C1.21973 14.9441 1.08062 13.3352 1.01074 11.9656C0.975981 11.2842 0.95859 10.668 0.949894 10.2221C0.945547 9.99916 0.943375 9.81894 0.942291 9.69458C0.941748 9.6324 0.941478 9.5842 0.941343 9.55161L0.941225 9.51465L0.94121 9.50534L0.941208 9.50305L0.941208 9.5025L0.941208 9.50238L0.711426 9.50235L0.941208 9.50233L0.941208 9.50221L0.941208 9.50167L0.94121 9.49939L0.941225 9.49013L0.941343 9.45335C0.941478 9.42092 0.941748 9.37295 0.94229 9.31106C0.943375 9.18726 0.945547 9.00784 0.949894 8.7858C0.958589 8.34164 0.97598 7.72749 1.01074 7.04751C1.0806 5.68111 1.21967 4.07194 1.49216 3.03606C1.78398 1.95308 2.66083 1.07682 3.72093 0.78535C4.22842 0.652009 5.1364 0.548275 6.23195 0.469647C7.32201 0.391414 8.57892 0.339154 9.7716 0.30428C10.9639 0.269417 12.0903 0.251979 12.9186 0.24326C13.3328 0.2389 13.6723 0.236721 13.9083 0.235632C14.0263 0.235087 14.1183 0.234815 14.1809 0.234679L14.2521 0.23456L14.2702 0.234545L14.2748 0.234543L14.2759 0.234543L14.2762 0.234543L14.2763 0.00476074L14.2763 0.234543L14.2766 0.234543L14.2777 0.234543L14.2823 0.234545L14.3004 0.234561L14.3716 0.234684C14.4342 0.234826 14.5262 0.235109 14.6442 0.235675C14.8801 0.236808 15.2197 0.239074 15.6338 0.243608C16.4621 0.252676 17.5884 0.27081 18.7806 0.307066C19.9733 0.343332 21.23 0.397678 22.3199 0.479027C23.4163 0.560866 24.3241 0.668813 24.8306 0.807424L24.8315 0.807671C25.9145 1.09924 26.7689 1.95371 27.0605 3.03669Z" fill="#FF0000" stroke="#E0E0E0" stroke-width="0.459565"/>
<path d="M11.802 5.83245L18.1736 9.50218L11.802 13.1719V5.83245Z" fill="white" stroke="#E0E0E0" stroke-width="0.459565"/>
</svg>
